<svg xmlns="http://www.w3.org/2000/svg" width="1920" height="1080" viewBox="0 0 1920 1080">
  <g id="Ride_Fair_IO_Logotype_Blaclk" data-name="Ride Fair IO Logotype Blaclk" transform="translate(15569 16044)">
    <rect id="Rectangle_6350" data-name="Rectangle 6350" width="1920" height="1080" transform="translate(-15569 -16044)" fill="none"/>
    <g id="Ride_Fair_IO_Logotype_Blaclk-2" data-name="Ride Fair IO Logotype Blaclk" transform="translate(-15569 -15667)">
      <path id="Path_23595" data-name="Path 23595" d="M78.945,191.019h-33.7a4.687,4.687,0,0,0-4.733,4.733V321.363a4.687,4.687,0,0,1-4.733,4.733H4.733A4.687,4.687,0,0,1,0,321.363V4.733A4.687,4.687,0,0,1,4.733,0H83.394q39.614,0,59.824,17.417c13.536,11.643,20.257,30.1,20.257,55.185v44.678q0,49.553-37.106,63.989a4.768,4.768,0,0,0-2.745,6.342l59.634,131.669a4.675,4.675,0,0,1-4.26,6.626H145.11a4.783,4.783,0,0,1-4.354-2.84L83.2,193.764A4.662,4.662,0,0,0,78.945,191.019ZM114.82,42.88c-5.4-5.3-14.1-7.951-25.842-7.951H45.246a4.687,4.687,0,0,0-4.733,4.733v111.7a4.687,4.687,0,0,0,4.733,4.733H88.978c11.832,0,20.446-2.745,25.842-8.141s8.141-14.009,8.141-25.842V68.438C122.96,56.7,120.215,48.181,114.82,42.88Z" transform="translate(0 0)" fill="#1a1a1a"/>
      <path id="Path_23596" data-name="Path 23596" d="M23.62,321.363V296.752a4.687,4.687,0,0,1,4.733-4.733H51.544a4.687,4.687,0,0,0,4.733-4.733V38.715a4.687,4.687,0,0,0-4.733-4.733H28.353a4.687,4.687,0,0,1-4.733-4.733V4.733A4.687,4.687,0,0,1,28.353,0H124.62a4.687,4.687,0,0,1,4.733,4.733V29.344a4.687,4.687,0,0,1-4.733,4.733H101.429A4.687,4.687,0,0,0,96.7,38.81V287.476a4.687,4.687,0,0,0,4.733,4.733H124.62a4.687,4.687,0,0,1,4.733,4.733v24.611a4.687,4.687,0,0,1-4.733,4.733H28.353A5.042,5.042,0,0,1,23.62,321.363Z" transform="translate(190.103 0)" fill="#1a1a1a"/>
      <path id="Path_23597" data-name="Path 23597" d="M193.3,309.247Q174.837,326,132.525,326H45.913a4.687,4.687,0,0,1-4.733-4.733V4.733A4.687,4.687,0,0,1,45.913,0H126.94q41.886,0,63.326,17.038T211.659,72.7V252.452Q211.8,292.493,193.3,309.247ZM161.869,44.016q-9.371-9.087-24.706-9.087H86.426a4.687,4.687,0,0,0-4.733,4.733V286.434a4.687,4.687,0,0,0,4.733,4.733H136.69c11.832,0,20.446-2.745,26.126-8.141,5.585-5.4,8.425-14.009,8.425-25.842V68.438Q171.24,53.1,161.869,44.016Z" transform="translate(321.137 0)" fill="#1a1a1a"/>
      <path id="Path_23598" data-name="Path 23598" d="M67.07,321.363V4.733A4.687,4.687,0,0,1,71.8,0H215.115a4.687,4.687,0,0,1,4.733,4.733V29.344a4.687,4.687,0,0,1-4.733,4.733h-102.8a4.687,4.687,0,0,0-4.733,4.733v97.214a4.687,4.687,0,0,0,4.733,4.733h91.155a4.687,4.687,0,0,1,4.733,4.733V170.1a4.687,4.687,0,0,1-4.733,4.733H112.316a4.687,4.687,0,0,0-4.733,4.733v107.91a4.687,4.687,0,0,0,4.733,4.733h102.8a4.687,4.687,0,0,1,4.733,4.733v24.611a4.687,4.687,0,0,1-4.733,4.733H71.8A5.042,5.042,0,0,1,67.07,321.363Z" transform="translate(508.226 0)" fill="#1a1a1a"/>
      <path id="Path_23599" data-name="Path 23599" d="M143.654,38.715V140.661a4.687,4.687,0,0,0,4.733,4.733h91.155a4.687,4.687,0,0,1,4.733,4.733v24.611a4.687,4.687,0,0,1-4.733,4.733H148.386a4.687,4.687,0,0,0-4.733,4.733V321.458a4.687,4.687,0,0,1-4.733,4.733H107.873a4.687,4.687,0,0,1-4.733-4.733V4.733A4.687,4.687,0,0,1,107.873,0H251.185a4.687,4.687,0,0,1,4.733,4.733V29.344a4.687,4.687,0,0,1-4.733,4.733h-102.8A4.608,4.608,0,0,0,143.654,38.715Z" transform="translate(707.957 0)" fill="#1a1a1a"/>
      <path id="Path_23600" data-name="Path 23600" d="M287.551,322.31l-16.092-74.969a4.678,4.678,0,0,0-4.638-3.692h-83.2a4.755,4.755,0,0,0-4.638,3.692L162.413,322.4a4.678,4.678,0,0,1-4.638,3.692h-31.71a4.7,4.7,0,0,1-4.544-5.869L198,3.6A4.665,4.665,0,0,1,202.548,0h46.1a4.665,4.665,0,0,1,4.544,3.6l75.064,316.63A4.7,4.7,0,0,1,323.71,326H292A4.532,4.532,0,0,1,287.551,322.31ZM220.439,52.346l-31.9,150.6a4.685,4.685,0,0,0,4.638,5.679H257.45a4.731,4.731,0,0,0,4.638-5.679l-32.373-150.6A4.75,4.75,0,0,0,220.439,52.346Z" transform="translate(834.431 0)" fill="#1a1a1a"/>
      <path id="Path_23601" data-name="Path 23601" d="M146.84,321.363V296.752a4.687,4.687,0,0,1,4.733-4.733h23.191a4.687,4.687,0,0,0,4.733-4.733V38.715a4.687,4.687,0,0,0-4.733-4.733H151.573a4.687,4.687,0,0,1-4.733-4.733V4.733A4.687,4.687,0,0,1,151.573,0H247.84a4.687,4.687,0,0,1,4.733,4.733V29.344a4.687,4.687,0,0,1-4.733,4.733H224.649a4.687,4.687,0,0,0-4.733,4.733V287.476a4.687,4.687,0,0,0,4.733,4.733H247.84a4.687,4.687,0,0,1,4.733,4.733v24.611a4.687,4.687,0,0,1-4.733,4.733H151.573A5.042,5.042,0,0,1,146.84,321.363Z" transform="translate(1059.252 0)" fill="#1a1a1a"/>
      <path id="Path_23602" data-name="Path 23602" d="M243.345,191.019h-33.7a4.687,4.687,0,0,0-4.733,4.733V321.363a4.687,4.687,0,0,1-4.733,4.733H169.133a4.687,4.687,0,0,1-4.733-4.733V4.733A4.687,4.687,0,0,1,169.133,0h78.661q39.614,0,59.824,17.417c13.536,11.643,20.257,30.1,20.257,55.185v44.678q0,49.553-37.106,63.989a4.768,4.768,0,0,0-2.745,6.342l59.634,131.669a4.675,4.675,0,0,1-4.26,6.626H309.51a4.783,4.783,0,0,1-4.354-2.84L247.51,193.575A4.375,4.375,0,0,0,243.345,191.019ZM279.314,42.88c-5.4-5.3-14.1-7.951-25.841-7.951H209.741a4.687,4.687,0,0,0-4.733,4.733v111.7a4.687,4.687,0,0,0,4.733,4.733h43.732c11.832,0,20.446-2.745,25.841-8.141s8.141-14.009,8.141-25.842V68.438C287.455,56.7,284.71,48.181,279.314,42.88Z" transform="translate(1190.286 0)" fill="#1a1a1a"/>
      <path id="Path_23603" data-name="Path 23603" d="M189.01,71.453v-37.2a4.687,4.687,0,0,1,4.733-4.733h37.2a4.687,4.687,0,0,1,4.733,4.733v37.2a4.687,4.687,0,0,1-4.733,4.733h-37.2A4.747,4.747,0,0,1,189.01,71.453Z" transform="translate(1391.446 249.91)" fill="#1a1a1a"/>
      <path id="Path_23604" data-name="Path 23604" d="M200.82,37.2V4.733A4.687,4.687,0,0,1,205.553,0h34.834a4.687,4.687,0,0,1,4.733,4.733V37.2a4.687,4.687,0,0,1-4.733,4.733H205.553A4.687,4.687,0,0,1,200.82,37.2Zm2.272,284.163V97.876a4.687,4.687,0,0,1,4.733-4.733h30.2a4.687,4.687,0,0,1,4.733,4.733V321.363a4.687,4.687,0,0,1-4.733,4.733h-30.2A4.809,4.809,0,0,1,203.092,321.363Z" transform="translate(1468.635 0)" fill="#1a1a1a"/>
      <path id="Path_23605" data-name="Path 23605" d="M357.656,225.007q-19.31,17.748-59.824,17.7h-6.058q-40.466,0-59.824-17.7-19.31-17.748-19.31-56.795V84.346q0-39.188,19.31-56.795c12.873-11.738,32.846-17.7,59.824-17.7h6.058q40.466,0,59.824,17.7,19.31,17.748,19.31,56.795v83.867Q376.966,207.259,357.656,225.007ZM328.5,52.635q-8.8-7.951-26.125-7.951H287.041q-17.181,0-26.126,7.951c-5.869,5.3-8.9,12.779-8.9,22.339v102.42c0,9.655,2.934,17.133,8.9,22.339q8.8,7.951,26.126,7.951h15.334q17.18,0,26.125-7.951c5.869-5.3,8.9-12.779,8.9-22.339V74.975C337.4,65.319,334.37,57.936,328.5,52.635Z" transform="translate(1543.034 83.388)" fill="#1a1a1a"/>
    </g>
  </g>
</svg>
