<?xml version="1.0" encoding="utf-8"?>
<!-- Generator: Adobe Illustrator 24.0.1, SVG Export Plug-In . SVG Version: 6.00 Build 0)  -->
<svg version="1.1" id="Layer_1" xmlns="http://www.w3.org/2000/svg" xmlns:xlink="http://www.w3.org/1999/xlink" x="0px" y="0px"
	 viewBox="0 0 1284 1284" style="enable-background:new 0 0 1284 1284;" xml:space="preserve">
<style type="text/css">
	.st0{fill:#1A1A1A;}
	.st1{fill:#FFEB00;}
</style>
<g id="Ride_Fair_IO_Logomark_Black-2" transform="translate(-15949.745 -18237.1)">
	<path id="Path_26743" class="st0" d="M16865,18339.1c22.7,0,43.7,12.1,55,31.8l273.6,476.6c11.2,19.5,11.2,43.6,0,63.1
		l-273.6,476.6c-11.3,19.7-32.3,31.8-55,31.8h-546.5c-22.7,0-43.7-12.1-55-31.8l-273.6-476.6c-11.2-19.5-11.2-43.6,0-63.1
		l273.6-476.6c11.3-19.7,32.3-31.8,55-31.8H16865z"/>
	<path id="Path_23589" class="st1" d="M16483,19274.4c-20.5,0-37.1-16.6-37.1-37.1v-26h289.5v26c0,20.5-16.6,37.1-37.1,37.1H16483z
		 M16437.9,19185.3c-13.3,0-25.6-7.1-32.2-18.7l-154.1-269.1c-6.5-11.4-6.5-25.5,0-36.9l153.5-268v-44.1c0-20.5,16.6-37.1,37.1-37.1
		c0,0,0,0,0,0h296.9c20.5,0,37.1,16.6,37.1,37.1v40.4c0.6,0.8,1.1,1.7,1.6,2.5l154.1,269.1c6.5,11.4,6.5,25.5,0,36.9l-154.1,269.1
		c-6.6,11.5-18.9,18.7-32.2,18.7H16437.9z M16660.1,18620.7l-218.3,89.8c-15.6,1-30.3,7.9-41,19.3c-10.8,11.4-16.9,26.6-16.9,42.3
		c0,6.8,1.4,13,3.4,20.1c0.1,0.2,0.2,0.4,0.2,0.6s0,0.4,0.2,0.6l0.9,2.2c0,0.2,0.1,0.3,0.2,0.5l0,0c0.1,0.1,0.1,0.3,0.1,0.4
		l88.3,227.3c2.1,68.3,59.3,121.9,127.6,119.8c66.8-2.1,119.9-56.9,119.9-123.8v-356.1c0-25.6-20.7-46.4-46.3-46.4c0,0-0.1,0-0.1,0
		C16671.9,18617.3,16665.8,18618.5,16660.1,18620.7z M16326.3,19163l-110.7-193.2c-10.2-17.8-4-40.5,13.8-50.7c0,0,0,0,0,0l3.2-1.8
		l147.6,257.6l-3.2,1.8C16359.2,19186.9,16336.5,19180.8,16326.3,19163C16326.3,19163,16326.3,19163,16326.3,19163L16326.3,19163z
		 M16806.5,19176.7l-3.2-1.8l147.6-257.6l3.2,1.8c17.8,10.2,23.9,32.9,13.8,50.7c0,0,0,0,0,0l-110.7,193.2
		C16847,19180.7,16824.3,19186.9,16806.5,19176.7C16806.5,19176.7,16806.5,19176.7,16806.5,19176.7L16806.5,19176.7z
		 M16564.6,19105.4c-22.3-9.5-40-27.2-49.5-49.5c-9.8-23.1-9.8-49.1,0-72.1c9.5-22.3,27.2-40,49.5-49.5c23.1-9.8,49.1-9.8,72.1,0
		c22.3,9.5,40,27.2,49.5,49.5c9.8,23.1,9.8,49.1,0,72.1c-9.5,22.3-27.2,40-49.5,49.5
		C16613.7,19115.2,16587.6,19115.2,16564.6,19105.4z M16556.9,18976.1c-24,24.2-23.9,63.2,0.3,87.2c24.2,24,63.2,23.9,87.2-0.3
		c24-24.2,23.9-63.2-0.3-87.2c-11.6-11.5-27.2-17.9-43.5-17.9C16584.2,18957.9,16568.5,18964.5,16556.9,18976.1z M16567.7,19020.4
		c0-17.1,13.9-31,31-31c17.1,0,31,13.9,31,31c0,17.1-13.9,31-31,31c0,0,0,0,0,0C16581.6,19051.3,16567.7,19037.5,16567.7,19020.4
		L16567.7,19020.4z M16488.9,18967.8l-52.3-134.7c1,0.1,2,0.2,2.9,0.3l0.2,0c2,0.3,4.1,0.5,6.2,0.6c34.2-0.1,61.8-27.8,61.9-61.9
		c0-9-2-17.8-5.8-25.9c-3.7-7.8-9-14.8-15.6-20.6l145.5-59.8c0.6,11.9,5.7,23.2,14.2,31.4c8.6,8.3,20,12.9,31.9,12.8
		c5.3-0.1,10.5-1.1,15.5-2.8v231.3c-11.3-13.1-25.3-23.7-41-31.1c-16.2-7.7-34-11.6-51.9-11.6c-23.9,0-47.2,6.9-67.2,20
		C16514,18928.8,16498.6,18946.7,16488.9,18967.8L16488.9,18967.8L16488.9,18967.8z M16417.3,18784.5v-0.9
		c-1.6-3.6-2.5-7.5-2.5-11.5c0-17.1,13.9-30.9,31-30.9c17.1,0,30.9,13.9,30.9,31c0,17-13.8,30.9-30.9,30.9
		C16433.5,18803,16422.4,18795.8,16417.3,18784.5L16417.3,18784.5z M16430.3,18772.1c0,8.6,6.9,15.5,15.5,15.5
		c8.6,0,15.5-6.9,15.5-15.5s-6.9-15.5-15.5-15.5c-8.5-0.1-15.4,6.7-15.5,15.2C16430.3,18771.9,16430.3,18772,16430.3,18772.1
		L16430.3,18772.1z M16254.7,18802.9l-45.1-25.8c-17.8-10.2-23.9-32.9-13.8-50.6c0,0,0,0,0,0l59-103.1c10.2-17.8,32.8-24,50.6-13.8
		c0,0,0,0,0,0l45.1,25.8L16254.7,18802.9L16254.7,18802.9L16254.7,18802.9z M16241.8,18707.8c-8,4.6-10.7,14.8-6.1,22.8
		c4.6,8,14.8,10.7,22.8,6.1s10.7-14.8,6.1-22.8c-3-5.2-8.5-8.3-14.4-8.3C16247.2,18705.6,16244.3,18706.4,16241.8,18707.8
		L16241.8,18707.8z M16271.8,18655.7c-8,4.6-10.7,14.8-6.1,22.8c4.6,8,14.8,10.7,22.8,6.1c8-4.6,10.7-14.8,6.1-22.8
		c-3-5.2-8.5-8.3-14.5-8.3C16277.2,18653.5,16274.4,18654.3,16271.8,18655.7L16271.8,18655.7z M16926.6,18799.2l-95.9-167.5
		l45.1-25.8c17.8-10.2,40.4-4,50.6,13.7c0,0,0,0,0,0l59,103.1c10.2,17.8,4,40.4-13.8,50.7L16926.6,18799.2L16926.6,18799.2z
		 M16918.9,18710.2c-4.6,8-1.9,18.2,6.1,22.8s18.2,1.9,22.8-6.1s1.9-18.2-6.1-22.8c-2.5-1.5-5.4-2.2-8.3-2.2
		C16927.4,18701.9,16921.9,18705.1,16918.9,18710.2L16918.9,18710.2z M16888.8,18658.1c-4.6,8-1.9,18.2,6.1,22.8s18.2,1.9,22.8-6.1
		l0,0c4.6-8,1.9-18.2-6.1-22.8c-2.5-1.5-5.4-2.2-8.3-2.2C16897.3,18649.8,16891.8,18653,16888.8,18658.1z M16670.2,18678.8
		c-8.9-5.1-11.9-16.5-6.8-25.3c5.1-8.9,16.5-11.9,25.3-6.8c8.9,5.1,11.9,16.5,6.8,25.3c-3.3,5.7-9.4,9.3-16.1,9.3
		C16676.2,18681.3,16673,18680.4,16670.2,18678.8z M16471.9,18485.7v-26c0-20.5,16.6-37.1,37.1-37.1c0,0,0,0,0,0h163.3
		c20.5,0,37.1,16.6,37.1,37.1v26H16471.9z"/>
</g>
</svg>
