<?xml version="1.0" encoding="utf-8"?>
<!-- Generator: Adobe Illustrator 24.0.2, SVG Export Plug-In . SVG Version: 6.00 Build 0)  -->
<svg version="1.1" id="Layer_1" xmlns="http://www.w3.org/2000/svg" xmlns:xlink="http://www.w3.org/1999/xlink" x="0px" y="0px"
	 viewBox="0 0 1920 1080" style="enable-background:new 0 0 1920 1080;" xml:space="preserve">
<style type="text/css">
	.st0{fill:none;}
	.st1{fill:#FFFFFF;}
	.st2{fill:#FFEB00;}
</style>
<g id="Ride_Fair_IO_Logo_Vertical_Black" transform="translate(15569 21950)">
	<rect id="Rectangle_6345" x="-15569" y="-21950" class="st0" width="1920" height="1080"/>
	<g id="Ride_Fair_IO_Logo_Vertical_Black-2" transform="translate(-1573.449 -4550.53)">
		<g id="Group_1171" transform="translate(-13383.331 -17399.471)">
			<path id="Path_26743" class="st1" d="M462.9,0c11.9,0,22.9,6.4,28.8,16.7L635,266.4c5.9,10.2,5.9,22.8,0,33.1L491.7,549.2
				c-5.9,10.3-16.9,16.7-28.8,16.7H176.6c-11.9,0-22.9-6.4-28.8-16.7L4.4,299.5c-5.9-10.2-5.9-22.8,0-33.1L147.7,16.7
				C153.7,6.4,164.7,0,176.6,0H462.9z"/>
			<path id="Path_23589" class="st2" d="M262.7,490c-10.7,0-19.4-8.7-19.4-19.4c0,0,0,0,0,0V457H395v13.6c0,10.7-8.7,19.4-19.4,19.4
				l0,0L262.7,490z M239.1,443.4c-7,0-13.4-3.7-16.9-9.8l-80.7-141c-3.4-6-3.4-13.3,0-19.3l80.4-140.4v-23.1
				c0-10.7,8.7-19.4,19.4-19.4l0,0h155.6c10.7,0,19.4,8.7,19.4,19.4V131c0.3,0.4,0.6,0.9,0.8,1.3l80.7,141c3.4,6,3.4,13.3,0,19.3
				l-80.7,141c-3.5,6-9.9,9.8-16.9,9.8H239.1z M355.5,147.6l-114.4,47.1c-8.2,0.5-15.9,4.2-21.5,10.1c-5.7,6-8.9,13.9-8.8,22.2
				c0.1,3.6,0.7,7.1,1.8,10.5c0.1,0.1,0.1,0.2,0.1,0.3c0,0.1,0,0.2,0.1,0.3l0.5,1.1c0,0.1,0,0.2,0.1,0.2l0,0c0,0.1,0.1,0.1,0.1,0.2
				l46.2,119.1c1.1,35.8,31.1,63.9,66.9,62.7c35-1.1,62.8-29.8,62.8-64.8V170.1c0-13.4-10.8-24.3-24.3-24.3c0,0-0.1,0-0.1,0
				C361.7,145.8,358.5,146.4,355.5,147.6z M180.6,431.7l-58-101.2c-5.3-9.3-2.1-21.2,7.2-26.5c0,0,0,0,0,0l1.7-1l77.3,135l-1.7,1
				C197.9,444.2,186,441,180.6,431.7C180.6,431.7,180.6,431.7,180.6,431.7L180.6,431.7z M432.2,438.9l-1.7-1l77.3-135l1.7,1
				c9.3,5.3,12.5,17.2,7.2,26.5c0,0,0,0,0,0l-58,101.3C453.5,441,441.6,444.2,432.2,438.9C432.3,438.9,432.3,438.9,432.2,438.9
				L432.2,438.9z M305.5,401.5c-11.7-5-21-14.3-25.9-25.9c-5.1-12.1-5.1-25.7,0-37.8c5-11.7,14.3-21,25.9-25.9
				c12.1-5.1,25.7-5.1,37.8,0c11.7,5,21,14.3,25.9,25.9c5.1,12.1,5.1,25.7,0,37.8c-5,11.7-14.3,21-25.9,25.9
				C331.2,406.7,317.6,406.7,305.5,401.5z M301.5,333.8c-12.6,12.7-12.5,33.1,0.1,45.7c12.7,12.6,33.1,12.5,45.7-0.1
				c12.6-12.7,12.5-33.1-0.1-45.7c-6.1-6-14.2-9.4-22.8-9.4C315.8,324.2,307.5,327.7,301.5,333.8z M307.1,357
				c0-9,7.3-16.2,16.2-16.2c9,0,16.2,7.3,16.2,16.2s-7.3,16.2-16.2,16.2c0,0,0,0,0,0C314.4,373.2,307.1,365.9,307.1,357L307.1,357z
				 M265.8,329.4l-27.4-70.6c0.5,0.1,1,0.1,1.5,0.2l0.1,0c1.1,0.2,2.2,0.3,3.2,0.3c17.9-0.1,32.4-14.6,32.4-32.5c0-4.7-1-9.3-3-13.6
				c-2-4.1-4.7-7.8-8.1-10.8l76.3-31.3c0.3,6.2,3,12.1,7.5,16.5c4.5,4.3,10.5,6.7,16.7,6.7c2.8-0.1,5.5-0.6,8.1-1.5v121.2
				c-5.9-6.9-13.3-12.4-21.5-16.3c-8.5-4-17.8-6.1-27.2-6.1c-12.5,0-24.7,3.6-35.2,10.5C279,309,270.9,318.4,265.8,329.4
				L265.8,329.4L265.8,329.4z M228.3,233.4v-0.5c-0.8-1.9-1.3-3.9-1.3-6c0-8.9,7.3-16.2,16.2-16.2s16.2,7.3,16.2,16.2
				c0,8.9-7.2,16.2-16.2,16.2C236.8,243.1,231,239.3,228.3,233.4L228.3,233.4z M235.1,226.9c0,4.5,3.6,8.1,8.1,8.1s8.1-3.6,8.1-8.1
				s-3.6-8.1-8.1-8.1l0,0c-4.4,0-8.1,3.5-8.1,7.9C235.1,226.8,235.1,226.8,235.1,226.9L235.1,226.9z M143.1,243l-23.6-13.5
				c-9.3-5.3-12.5-17.2-7.2-26.5c0,0,0,0,0,0l30.9-54c5.3-9.3,17.2-12.5,26.5-7.2c0,0,0,0,0,0l23.6,13.5L143.1,243L143.1,243
				L143.1,243z M136.3,193.2c-4.2,2.4-5.6,7.8-3.2,11.9c2.4,4.2,7.8,5.6,11.9,3.2c4.2-2.4,5.6-7.8,3.2-11.9
				c-1.6-2.7-4.5-4.4-7.6-4.4C139.2,192,137.7,192.4,136.3,193.2L136.3,193.2z M152.1,165.9c-4.2,2.4-5.6,7.8-3.2,11.9
				c2.4,4.2,7.8,5.6,11.9,3.2c4.2-2.4,5.6-7.8,3.2-11.9c-1.6-2.7-4.5-4.4-7.6-4.4C154.9,164.7,153.4,165.1,152.1,165.9L152.1,165.9z
				 M495.1,241.1l-50.3-87.7l23.6-13.5c9.3-5.3,21.2-2.1,26.5,7.2c0,0,0,0,0,0l30.9,54c5.3,9.3,2.1,21.2-7.2,26.5L495.1,241.1
				L495.1,241.1z M491.1,194.5c-2.4,4.2-1,9.5,3.2,12c4.2,2.4,9.5,1,12-3.2c2.4-4.2,1-9.5-3.2-12c-1.3-0.8-2.8-1.2-4.4-1.2
				C495.6,190.1,492.7,191.7,491.1,194.5L491.1,194.5z M475.4,167.2c-2.4,4.2-1,9.5,3.2,12s9.5,1,12-3.2c2.4-4.2,1-9.5-3.2-12
				c-1.3-0.8-2.8-1.2-4.4-1.2C479.8,162.8,477,164.5,475.4,167.2L475.4,167.2z M360.8,178c-4.6-2.7-6.2-8.6-3.6-13.3
				c2.7-4.6,8.6-6.2,13.3-3.6s6.2,8.6,3.6,13.3c-1.7,3-4.9,4.9-8.4,4.9C364,179.3,362.3,178.8,360.8,178z M256.9,76.8V63.2
				c0-10.7,8.7-19.4,19.4-19.4c0,0,0,0,0,0h85.6c10.7,0,19.4,8.7,19.4,19.4v13.6H256.9z"/>
		</g>
		<g id="Group_1172" transform="translate(-13947.551 -16629.316)">
			<path id="Path_23595" class="st1" d="M75,181.4H43c-2.5,0-4.5,1.9-4.5,4.4c0,0,0,0.1,0,0.1v119.3c0,2.5-1.9,4.5-4.4,4.5
				c0,0-0.1,0-0.1,0H4.5c-2.5,0-4.5-1.9-4.5-4.4c0,0,0-0.1,0-0.1V4.5C0,2,1.9,0,4.4,0c0,0,0.1,0,0.1,0h74.7c25.1,0,44,5.5,56.8,16.5
				c12.9,11.1,19.2,28.6,19.2,52.4v42.4c0,31.4-11.7,51.6-35.2,60.8c-2.3,0.9-3.6,3.5-2.7,5.8c0,0.1,0.1,0.1,0.1,0.2l56.6,125
				c1,2.2,0,4.9-2.2,5.9c-0.6,0.3-1.2,0.4-1.9,0.4h-32.2c-1.8,0-3.4-1.1-4.1-2.7L79,184C78.3,182.4,76.7,181.4,75,181.4z M109,40.7
				c-5.1-5-13.4-7.6-24.5-7.6H43c-2.5,0-4.5,1.9-4.5,4.4c0,0,0,0.1,0,0.1v106.1c0,2.5,1.9,4.5,4.4,4.5c0,0,0.1,0,0.1,0h41.5
				c11.2,0,19.4-2.6,24.5-7.7s7.7-13.3,7.7-24.5V65C116.8,53.8,114.2,45.8,109,40.7z"/>
			<path id="Path_23596" class="st1" d="M203,305.2v-23.4c0-2.5,1.9-4.5,4.4-4.5c0,0,0.1,0,0.1,0h22c2.5,0,4.5-1.9,4.5-4.4
				c0,0,0-0.1,0-0.1v-236c0-2.5-1.9-4.5-4.4-4.5c0,0-0.1,0-0.1,0h-22c-2.5,0-4.5-1.9-4.5-4.4c0,0,0-0.1,0-0.1V4.5
				c0-2.5,1.9-4.5,4.4-4.5c0,0,0.1,0,0.1,0h91.4c2.5,0,4.5,1.9,4.5,4.4c0,0,0,0.1,0,0.1v23.4c0,2.5-1.9,4.5-4.4,4.5c0,0-0.1,0-0.1,0
				h-22c-2.5,0-4.5,1.9-4.5,4.4c0,0,0,0.1,0,0.1V273c0,2.5,1.9,4.5,4.4,4.5c0,0,0.1,0,0.1,0h22c2.5,0,4.5,1.9,4.5,4.4
				c0,0,0,0.1,0,0.1v23.4c0,2.5-1.9,4.5-4.4,4.5c0,0-0.1,0-0.1,0h-91.4C205,309.7,203,307.7,203,305.2z"/>
			<path id="Path_23597" class="st1" d="M488.5,293.7c-11.7,10.6-30.9,15.9-57.7,15.9h-82.2c-2.5,0-4.5-1.9-4.5-4.4c0,0,0-0.1,0-0.1
				V4.5C344,2,346,0,348.5,0c0,0,0.1,0,0.1,0h76.9c26.5,0,46.6,5.4,60.1,16.2S506,44.6,506,69v170.7
				C506,265.1,500.2,283.1,488.5,293.7z M458.7,41.8c-5.9-5.8-13.8-8.6-23.5-8.6H387c-2.5,0-4.5,1.9-4.5,4.4c0,0,0,0.1,0,0.1V272
				c0,2.5,1.9,4.5,4.4,4.5c0,0,0.1,0,0.1,0h47.7c11.2,0,19.4-2.6,24.8-7.7c5.3-5.1,8-13.3,8-24.5V65
				C467.6,55.3,464.6,47.6,458.7,41.8z"/>
			<path id="Path_23598" class="st1" d="M546.3,305.2V4.5c0-2.5,1.9-4.5,4.4-4.5c0,0,0.1,0,0.1,0h136.1c2.5,0,4.5,1.9,4.5,4.4
				c0,0,0,0.1,0,0.1v23.4c0,2.5-1.9,4.5-4.4,4.5c0,0-0.1,0-0.1,0h-97.6c-2.5,0-4.5,1.9-4.5,4.4c0,0,0,0.1,0,0.1v92.3
				c0,2.5,1.9,4.5,4.4,4.5c0,0,0.1,0,0.1,0h86.6c2.5,0,4.5,1.9,4.5,4.4c0,0,0,0.1,0,0.1v23.4c0,2.5-1.9,4.5-4.4,4.5c0,0-0.1,0-0.1,0
				h-86.6c-2.5,0-4.5,1.9-4.5,4.4c0,0,0,0.1,0,0.1V273c0,2.5,1.9,4.5,4.4,4.5c0,0,0.1,0,0.1,0h97.6c2.5,0,4.5,1.9,4.5,4.4
				c0,0,0,0.1,0,0.1v23.4c0,2.5-1.9,4.5-4.4,4.5c0,0-0.1,0-0.1,0H550.8C548.3,309.7,546.4,307.7,546.3,305.2z"/>
			<path id="Path_23599" class="st1" d="M808.7,36.8v96.8c0,2.5,1.9,4.5,4.4,4.5c0,0,0.1,0,0.1,0h86.6c2.5,0,4.5,1.9,4.5,4.4
				c0,0,0,0.1,0,0.1v23.4c0,2.5-1.9,4.5-4.4,4.5c0,0-0.1,0-0.1,0h-86.6c-2.5,0-4.5,1.9-4.5,4.4c0,0,0,0.1,0,0.1v130.3
				c0,2.5-1.9,4.5-4.4,4.5c0,0-0.1,0-0.1,0h-29.5c-2.5,0-4.5-1.9-4.5-4.4c0,0,0-0.1,0-0.1V4.5c0-2.5,1.9-4.5,4.4-4.5
				c0,0,0.1,0,0.1,0h136.1c2.5,0,4.5,1.9,4.5,4.4c0,0,0,0.1,0,0.1v23.4c0,2.5-1.9,4.5-4.4,4.5c0,0-0.1,0-0.1,0h-97.6
				c-2.4-0.1-4.4,1.8-4.5,4.3C808.7,36.7,808.7,36.7,808.7,36.8z"/>
			<path id="Path_23600" class="st1" d="M1065.5,306.1l-15.3-71.2c-0.4-2.1-2.3-3.5-4.4-3.5h-79c-2.1,0-3.9,1.5-4.4,3.5l-15.7,71.3
				c-0.4,2.1-2.3,3.5-4.4,3.5h-30.1c-2.5,0-4.5-2-4.5-4.5c0-0.4,0-0.7,0.1-1.1L980.4,3.4c0.5-2,2.3-3.4,4.3-3.4h43.8
				c2.1,0,3.8,1.4,4.3,3.4l71.3,300.7c0.6,2.4-0.9,4.8-3.3,5.4c-0.3,0.1-0.7,0.1-1,0.1h-30.1
				C1067.6,309.6,1065.8,308.1,1065.5,306.1z M1001.7,49.7l-30.3,143c-0.5,2.4,1,4.8,3.4,5.3c0.3,0.1,0.7,0.1,1,0.1h61
				c2.5,0,4.5-2,4.5-4.5c0-0.3,0-0.6-0.1-0.9l-30.7-143c-0.5-2.4-2.9-4-5.4-3.4C1003.4,46.6,1002.1,48,1001.7,49.7z"/>
			<path id="Path_23601" class="st1" d="M1145.3,305.2v-23.4c0-2.5,1.9-4.5,4.4-4.5c0,0,0.1,0,0.1,0h22c2.5,0,4.5-1.9,4.5-4.4
				c0,0,0-0.1,0-0.1v-236c0-2.5-1.9-4.5-4.4-4.5c0,0-0.1,0-0.1,0h-22c-2.5,0-4.5-1.9-4.5-4.4c0,0,0-0.1,0-0.1V4.5
				c0-2.5,1.9-4.5,4.4-4.5c0,0,0.1,0,0.1,0h91.4c2.5,0,4.5,1.9,4.5,4.4c0,0,0,0.1,0,0.1v23.4c0,2.5-1.9,4.5-4.4,4.5c0,0-0.1,0-0.1,0
				h-22c-2.5,0-4.5,1.9-4.5,4.4c0,0,0,0.1,0,0.1V273c0,2.5,1.9,4.5,4.4,4.5c0,0,0.1,0,0.1,0h22c2.5,0,4.5,1.9,4.5,4.4
				c0,0,0,0.1,0,0.1v23.4c0,2.5-1.9,4.5-4.4,4.5c0,0-0.1,0-0.1,0h-91.4C1147.3,309.7,1145.4,307.7,1145.3,305.2z"/>
			<path id="Path_23602" class="st1" d="M1361.4,181.4h-32c-2.5,0-4.5,1.9-4.5,4.4c0,0,0,0.1,0,0.1v119.3c0,2.5-1.9,4.5-4.4,4.5
				c0,0-0.1,0-0.1,0h-29.5c-2.5,0-4.5-1.9-4.5-4.4c0,0,0-0.1,0-0.1V4.5c0-2.5,1.9-4.5,4.4-4.5c0,0,0.1,0,0.1,0h74.7
				c25.1,0,44,5.5,56.8,16.5c12.9,11.1,19.2,28.6,19.2,52.4v42.4c0,31.4-11.7,51.6-35.2,60.8c-2.3,0.9-3.6,3.5-2.7,5.8
				c0,0.1,0.1,0.1,0.1,0.2l56.6,125c1,2.2,0,4.9-2.2,5.9c-0.6,0.3-1.2,0.4-1.9,0.4h-32.2c-1.8,0-3.4-1.1-4.1-2.7l-54.7-123
				C1364.6,182.3,1363.1,181.3,1361.4,181.4z M1395.6,40.7c-5.1-5-13.4-7.6-24.5-7.6h-41.5c-2.5,0-4.5,1.9-4.5,4.4c0,0,0,0.1,0,0.1
				v106.1c0,2.5,1.9,4.5,4.4,4.5c0,0,0.1,0,0.1,0h41.5c11.2,0,19.4-2.6,24.5-7.7c5.1-5.1,7.7-13.3,7.7-24.5V65
				C1403.3,53.8,1400.7,45.8,1395.6,40.7z"/>
			<path id="Path_23603" class="st1" d="M1500.8,305.2v-35.3c0-2.5,1.9-4.5,4.4-4.5c0,0,0.1,0,0.1,0h35.3c2.5,0,4.5,1.9,4.5,4.4
				c0,0,0,0.1,0,0.1v35.3c0,2.5-1.9,4.5-4.4,4.5c0,0-0.1,0-0.1,0h-35.3C1502.8,309.7,1500.8,307.6,1500.8,305.2z"/>
			<path id="Path_23604" class="st1" d="M1585.3,35.3V4.5c0-2.5,1.9-4.5,4.4-4.5c0,0,0.1,0,0.1,0h33.1c2.5,0,4.5,1.9,4.5,4.4
				c0,0,0,0.1,0,0.1v30.8c0,2.5-1.9,4.5-4.4,4.5c0,0-0.1,0-0.1,0h-33.1C1587.4,39.8,1585.4,37.9,1585.3,35.3
				C1585.3,35.4,1585.3,35.4,1585.3,35.3z M1587.5,305.2V92.9c0-2.5,1.9-4.5,4.4-4.5c0,0,0.1,0,0.1,0h28.7c2.5,0,4.5,1.9,4.5,4.4
				c0,0,0,0.1,0,0.1v212.2c0,2.5-1.9,4.5-4.4,4.5c0,0-0.1,0-0.1,0H1592C1589.5,309.6,1587.5,307.6,1587.5,305.2L1587.5,305.2z"/>
			<path id="Path_23605" class="st1" d="M1804.9,292.9c-12.2,11.2-31.2,16.8-56.8,16.8h-5.8c-25.6,0-44.6-5.6-56.8-16.8
				c-12.2-11.2-18.3-29.2-18.3-53.9v-79.6c0-24.8,6.1-42.8,18.3-53.9c12.2-11.1,31.2-16.8,56.8-16.8h5.8c25.6,0,44.6,5.6,56.8,16.8
				c12.2,11.2,18.3,29.2,18.3,53.9v79.6C1823.3,263.6,1817.2,281.6,1804.9,292.9z M1777.2,129.2c-5.6-5-13.8-7.6-24.8-7.6h-14.6
				c-10.9,0-19.1,2.5-24.8,7.6c-5.6,5-8.4,12.1-8.4,21.2v97.3c0,9.2,2.8,16.3,8.4,21.2c5.6,5,13.8,7.6,24.8,7.6h14.6
				c10.9,0,19.1-2.5,24.8-7.6c5.6-5,8.4-12.1,8.4-21.2v-97.3C1785.7,141.2,1782.8,134.2,1777.2,129.2z"/>
		</g>
	</g>
</g>
</svg>
