<svg xmlns="http://www.w3.org/2000/svg" width="1920.001" height="1080" viewBox="0 0 1920.001 1080">
  <g id="Ride_Fair_IO_Logo_Horizontal_Black" data-name="Ride Fair IO Logo Horizontal Black" transform="translate(15569 19924)">
    <rect id="Rectangle_6346" data-name="Rectangle 6346" width="1920" height="1080" transform="translate(-15569 -19924)" fill="none"/>
    <g id="Ride_Fair_IO_Logo_Horizontal_Black-2" data-name="Ride Fair IO Logo Horizontal Black" transform="translate(-1621.487 -4550.529)">
      <g id="Group_1174" data-name="Group 1174" transform="translate(-13947.513 -15039.471)">
        <path id="Path_26743" data-name="Path 26743" d="M337.061,0a24.188,24.188,0,0,1,20.978,12.147L462.412,193.992a24.188,24.188,0,0,1,0,24.081L358.039,399.919a24.188,24.188,0,0,1-20.978,12.147h-208.5a24.188,24.188,0,0,1-20.978-12.147L3.21,218.074a24.188,24.188,0,0,1,0-24.081L107.583,12.147A24.188,24.188,0,0,1,128.561,0Z" transform="translate(0 0)" fill="#1a1a1a"/>
        <path id="Path_23589" data-name="Path 23589" d="M111.43,324.98a14.16,14.16,0,0,1-14.16-14.16v-9.913h110.45v9.913a14.16,14.16,0,0,1-14.16,14.16ZM94.216,290.994a14.2,14.2,0,0,1-12.288-7.123L23.131,181.21a14.163,14.163,0,0,1,0-14.075L81.693,64.882V48.074a14.16,14.16,0,0,1,14.16-14.16H209.136a14.161,14.161,0,0,1,14.16,14.16V63.508q.321.468.605.964l58.8,102.663a14.155,14.155,0,0,1,0,14.075L223.9,283.872a14.194,14.194,0,0,1-12.288,7.123ZM179,75.592,95.7,109.854a23.7,23.7,0,0,0-15.654,7.37,23.38,23.38,0,0,0-6.438,16.141,27.116,27.116,0,0,0,1.3,7.68.325.325,0,0,1,.059.237.32.32,0,0,0,.059.236l.354.827a.419.419,0,0,0,.06.177l.005.01a.407.407,0,0,1,.054.167l33.67,86.72a47.211,47.211,0,0,0,94.4-1.537V92.014a17.7,17.7,0,0,0-17.722-17.722A19.1,19.1,0,0,0,179,75.592ZM51.641,282.479,9.418,208.752a14.161,14.161,0,0,1,5.251-19.325l1.229-.7,56.3,98.3-1.229.7a14.154,14.154,0,0,1-19.325-5.251Zm183.216,5.251-1.229-.7,56.3-98.3,1.227.7a14.16,14.16,0,0,1,5.251,19.325l-42.223,73.727a14.155,14.155,0,0,1-19.325,5.251Zm-92.306-27.2a35.781,35.781,0,0,1-18.886-18.886,35.25,35.25,0,0,1,0-27.524,35.785,35.785,0,0,1,18.886-18.884,35.25,35.25,0,0,1,27.524,0,35.788,35.788,0,0,1,18.884,18.884,35.25,35.25,0,0,1,0,27.524,35.785,35.785,0,0,1-18.884,18.886,35.251,35.251,0,0,1-27.524,0Zm-2.926-49.336a23.533,23.533,0,1,0,16.689-6.941A23.46,23.46,0,0,0,139.625,211.194Zm4.123,16.873a11.824,11.824,0,1,1,11.823,11.823A11.837,11.837,0,0,1,143.748,228.067Zm-30.087-20.037L93.7,156.64c.372.037.749.087,1.114.134l.073.01a18.025,18.025,0,0,0,2.358.21,23.7,23.7,0,0,0,23.628-23.63,22.929,22.929,0,0,0-2.215-9.879,24.2,24.2,0,0,0-5.935-7.842l55.527-22.8a17.808,17.808,0,0,0,5.435,11.992,17.461,17.461,0,0,0,12.168,4.9,19.479,19.479,0,0,0,5.908-1.062v88.254a47.4,47.4,0,0,0-15.64-11.874,46.056,46.056,0,0,0-19.8-4.43,46.622,46.622,0,0,0-25.624,7.635,47.186,47.186,0,0,0-17.026,19.771v0ZM86.37,138.09v-.354a10.812,10.812,0,0,1-.946-4.371A11.8,11.8,0,1,1,97.24,145.181,12.033,12.033,0,0,1,86.37,138.09Zm4.961-4.726a5.908,5.908,0,1,0,5.908-5.907A5.846,5.846,0,0,0,91.332,133.364Zm-67,11.744-17.2-9.851A14.158,14.158,0,0,1,1.88,115.932L24.4,76.611A14.155,14.155,0,0,1,43.724,71.36l17.2,9.851-36.594,63.9h0ZM19.38,108.825a6.361,6.361,0,1,0,3.181-.858A6.353,6.353,0,0,0,19.38,108.825ZM30.856,88.948a6.364,6.364,0,1,0,3.181-.856A6.35,6.35,0,0,0,30.856,88.948Zm249.8,54.744L244.063,79.8l17.2-9.853a14.154,14.154,0,0,1,19.324,5.251l22.52,39.321a14.178,14.178,0,0,1-5.251,19.325l-17.2,9.851Zm-2.913-33.955a6.372,6.372,0,1,0,5.525-3.186A6.4,6.4,0,0,0,277.744,109.737ZM266.268,89.861a6.373,6.373,0,1,0,11.038,6.372,6.375,6.375,0,0,0-5.513-9.559A6.4,6.4,0,0,0,266.268,89.861Zm-83.432,7.88a7.077,7.077,0,1,1,3.533.949A7.081,7.081,0,0,1,182.836,97.741ZM107.182,24.073V14.16A14.16,14.16,0,0,1,121.342,0h62.306a14.161,14.161,0,0,1,14.16,14.16v9.913Z" transform="translate(79.896 31.861)" fill="#ffeb00"/>
      </g>
      <g id="Group_1173" data-name="Group 1173" transform="translate(-13355.178 -14946.177)">
        <path id="Path_23595" data-name="Path 23595" d="M54.59,132.088h-23.3a3.241,3.241,0,0,0-3.273,3.273V222.22a3.241,3.241,0,0,1-3.273,3.273H3.273A3.241,3.241,0,0,1,0,222.22V3.273A3.241,3.241,0,0,1,3.273,0H57.666Q85.059,0,99.034,12.044c9.36,8.051,14.007,20.815,14.007,38.16V81.1q0,34.266-25.658,44.248a3.3,3.3,0,0,0-1.9,4.385l41.237,91.048a3.233,3.233,0,0,1-2.945,4.582H100.343a3.307,3.307,0,0,1-3.011-1.964l-39.8-89.412A3.224,3.224,0,0,0,54.59,132.088ZM79.4,29.651c-3.731-3.665-9.753-5.5-17.869-5.5H31.288a3.241,3.241,0,0,0-3.273,3.273v77.237a3.241,3.241,0,0,0,3.273,3.273h30.24c8.182,0,14.138-1.9,17.869-5.629s5.629-9.687,5.629-17.869V47.324C85.026,39.208,83.128,33.317,79.4,29.651Z" transform="translate(0 0)" fill="#1a1a1a"/>
        <path id="Path_23596" data-name="Path 23596" d="M23.62,222.22V205.2a3.241,3.241,0,0,1,3.273-3.273H42.929a3.241,3.241,0,0,0,3.273-3.273V26.771A3.241,3.241,0,0,0,42.929,23.5H26.893a3.241,3.241,0,0,1-3.273-3.273V3.273A3.241,3.241,0,0,1,26.893,0H93.461a3.241,3.241,0,0,1,3.273,3.273V20.291a3.241,3.241,0,0,1-3.273,3.273H77.424a3.241,3.241,0,0,0-3.273,3.273V198.787a3.241,3.241,0,0,0,3.273,3.273H93.461a3.241,3.241,0,0,1,3.273,3.273v17.018a3.241,3.241,0,0,1-3.273,3.273H26.893A3.487,3.487,0,0,1,23.62,222.22Z" transform="translate(124.168 0)" fill="#1a1a1a"/>
        <path id="Path_23597" data-name="Path 23597" d="M146.366,213.842q-12.764,11.586-42.022,11.586H44.453a3.241,3.241,0,0,1-3.273-3.273V3.273A3.241,3.241,0,0,1,44.453,0h56.03q28.964,0,43.789,11.782T159.065,50.27v124.3Q159.163,202.256,146.366,213.842ZM124.635,30.437q-6.48-6.284-17.084-6.284H72.468a3.241,3.241,0,0,0-3.273,3.273V198.067a3.241,3.241,0,0,0,3.273,3.273h34.757c8.182,0,14.138-1.9,18.066-5.629,3.862-3.731,5.825-9.687,5.825-17.869V47.324Q131.115,36.72,124.635,30.437Z" transform="translate(209.359 0)" fill="#1a1a1a"/>
        <path id="Path_23598" data-name="Path 23598" d="M67.07,222.22V3.273A3.241,3.241,0,0,1,70.343,0h99.1a3.241,3.241,0,0,1,3.273,3.273V20.291a3.241,3.241,0,0,1-3.273,3.273H98.358a3.241,3.241,0,0,0-3.273,3.273V94.059a3.241,3.241,0,0,0,3.273,3.273h63.033a3.241,3.241,0,0,1,3.273,3.273v17.018a3.241,3.241,0,0,1-3.273,3.273H98.358a3.241,3.241,0,0,0-3.273,3.273v74.619a3.241,3.241,0,0,0,3.273,3.273h71.084a3.241,3.241,0,0,1,3.273,3.273v17.018a3.241,3.241,0,0,1-3.273,3.273h-99.1A3.487,3.487,0,0,1,67.07,222.22Z" transform="translate(330.743 0)" fill="#1a1a1a"/>
        <path id="Path_23599" data-name="Path 23599" d="M131.155,26.771v70.5a3.241,3.241,0,0,0,3.273,3.273h63.033a3.241,3.241,0,0,1,3.273,3.273V120.83a3.241,3.241,0,0,1-3.273,3.273H134.428a3.241,3.241,0,0,0-3.273,3.273v94.91a3.241,3.241,0,0,1-3.273,3.273H106.413a3.241,3.241,0,0,1-3.273-3.273V3.273A3.241,3.241,0,0,1,106.413,0h99.1a3.241,3.241,0,0,1,3.273,3.273V20.291a3.241,3.241,0,0,1-3.273,3.273H134.428A3.186,3.186,0,0,0,131.155,26.771Z" transform="translate(457.727 0)" fill="#1a1a1a"/>
        <path id="Path_23600" data-name="Path 23600" d="M236.284,222.875l-11.127-51.84a3.235,3.235,0,0,0-3.207-2.553H164.415a3.288,3.288,0,0,0-3.207,2.553L149.753,222.94a3.235,3.235,0,0,1-3.207,2.553H124.618a3.248,3.248,0,0,1-3.142-4.058L174.364,2.487A3.226,3.226,0,0,1,177.505,0h31.877a3.226,3.226,0,0,1,3.142,2.487L264.43,221.435a3.25,3.25,0,0,1-3.142,3.993H239.361A3.134,3.134,0,0,1,236.284,222.875ZM189.877,36.2,167.818,140.336a3.24,3.24,0,0,0,3.207,3.927H215.47a3.272,3.272,0,0,0,3.207-3.927L196.291,36.2A3.284,3.284,0,0,0,189.877,36.2Z" transform="translate(539.557 0)" fill="#1a1a1a"/>
        <path id="Path_23601" data-name="Path 23601" d="M146.84,222.22V205.2a3.241,3.241,0,0,1,3.273-3.273h16.037a3.241,3.241,0,0,0,3.273-3.273V26.771a3.241,3.241,0,0,0-3.273-3.273H150.113a3.241,3.241,0,0,1-3.273-3.273V3.273A3.241,3.241,0,0,1,150.113,0h66.568a3.241,3.241,0,0,1,3.273,3.273V20.291a3.241,3.241,0,0,1-3.273,3.273H200.644a3.241,3.241,0,0,0-3.273,3.273V198.787a3.241,3.241,0,0,0,3.273,3.273h16.036a3.241,3.241,0,0,1,3.273,3.273v17.018a3.241,3.241,0,0,1-3.273,3.273H150.113A3.487,3.487,0,0,1,146.84,222.22Z" transform="translate(687.164 0)" fill="#1a1a1a"/>
        <path id="Path_23602" data-name="Path 23602" d="M218.99,132.088h-23.3a3.241,3.241,0,0,0-3.273,3.273V222.22a3.241,3.241,0,0,1-3.273,3.273H167.673a3.241,3.241,0,0,1-3.273-3.273V3.273A3.241,3.241,0,0,1,167.673,0h54.393q27.393,0,41.368,12.044c9.36,8.051,14.007,20.815,14.007,38.16V81.1q0,34.266-25.658,44.248a3.3,3.3,0,0,0-1.9,4.385l41.237,91.048a3.233,3.233,0,0,1-2.945,4.582H264.743a3.307,3.307,0,0,1-3.011-1.964L221.87,133.856A3.026,3.026,0,0,0,218.99,132.088ZM243.862,29.651c-3.731-3.665-9.753-5.5-17.869-5.5h-30.24a3.241,3.241,0,0,0-3.273,3.273v77.237a3.241,3.241,0,0,0,3.273,3.273h30.24c8.182,0,14.138-1.9,17.869-5.629s5.629-9.687,5.629-17.869V47.324C249.492,39.208,247.593,33.317,243.862,29.651Z" transform="translate(772.355 0)" fill="#1a1a1a"/>
        <path id="Path_23603" data-name="Path 23603" d="M189.01,58.517V32.793a3.241,3.241,0,0,1,3.273-3.273h25.724a3.241,3.241,0,0,1,3.273,3.273V58.517a3.241,3.241,0,0,1-3.273,3.273H192.283A3.282,3.282,0,0,1,189.01,58.517Z" transform="translate(903.863 163.704)" fill="#1a1a1a"/>
        <path id="Path_23604" data-name="Path 23604" d="M200.82,25.724V3.273A3.241,3.241,0,0,1,204.093,0H228.18a3.241,3.241,0,0,1,3.273,3.273V25.724A3.241,3.241,0,0,1,228.18,29H204.093A3.241,3.241,0,0,1,200.82,25.724Zm1.571,196.5V67.681a3.241,3.241,0,0,1,3.273-3.273h20.88a3.241,3.241,0,0,1,3.273,3.273V222.22a3.241,3.241,0,0,1-3.273,3.273h-20.88A3.326,3.326,0,0,1,202.391,222.22Z" transform="translate(953.596 0)" fill="#1a1a1a"/>
        <path id="Path_23605" data-name="Path 23605" d="M312.917,158.63Q299.564,170.9,271.55,170.87h-4.189q-27.982,0-41.368-12.24-13.353-12.273-13.353-39.273V61.363q0-27.1,13.353-39.273c8.9-8.116,22.713-12.24,41.368-12.24h4.189q27.982,0,41.368,12.24Q326.27,34.363,326.27,61.363v57.993Q326.27,146.357,312.917,158.63ZM292.757,39.436q-6.087-5.5-18.066-5.5h-10.6q-11.88,0-18.066,5.5c-4.058,3.665-6.153,8.836-6.153,15.447v70.822c0,6.676,2.029,11.847,6.153,15.447q6.087,5.5,18.066,5.5h10.6q11.88,0,18.066-5.5c4.058-3.665,6.153-8.836,6.153-15.447V54.883C298.91,48.207,296.815,43.1,292.757,39.436Z" transform="translate(1001.395 54.623)" fill="#1a1a1a"/>
      </g>
    </g>
  </g>
</svg>
