<svg xmlns="http://www.w3.org/2000/svg" width="1920" height="1080" viewBox="0 0 1920 1080">
  <g id="Ride_Fair_IO_Logo_Vertical_Black" data-name="Ride Fair IO Logo Vertical Black" transform="translate(15569 21950)">
    <rect id="Rectangle_6345" data-name="Rectangle 6345" width="1920" height="1080" transform="translate(-15569 -21950)" fill="none"/>
    <g id="Ride_Fair_IO_Logo_Vertical_Black-2" data-name="Ride Fair IO Logo Vertical Black" transform="translate(-1573.449 -4550.53)">
      <g id="Group_1171" data-name="Group 1171" transform="translate(-13383.331 -17399.471)">
        <path id="Path_26743" data-name="Path 26743" d="M462.881,0A33.217,33.217,0,0,1,491.69,16.682L635.024,266.407a33.216,33.216,0,0,1,0,33.071L491.69,549.2a33.217,33.217,0,0,1-28.809,16.682H176.551A33.217,33.217,0,0,1,147.742,549.2L4.408,299.477a33.217,33.217,0,0,1,0-33.071L147.742,16.682A33.217,33.217,0,0,1,176.551,0Z" transform="translate(0 0)" fill="#1a1a1a"/>
        <path id="Path_23589" data-name="Path 23589" d="M153.024,446.29a19.446,19.446,0,0,1-19.446-19.446V413.231H285.257v13.613a19.446,19.446,0,0,1-19.446,19.446Zm-23.639-46.671a19.494,19.494,0,0,1-16.875-9.782L31.765,248.853a19.45,19.45,0,0,1,0-19.329L112.188,89.1V66.019a19.446,19.446,0,0,1,19.446-19.446H287.2a19.447,19.447,0,0,1,19.446,19.446v21.2q.44.642.831,1.324l80.745,140.985a19.438,19.438,0,0,1,0,19.329L307.481,389.837a19.492,19.492,0,0,1-16.875,9.782ZM245.814,103.809,131.427,150.86a32.543,32.543,0,0,0-21.5,10.121,32.107,32.107,0,0,0-8.842,22.166,37.238,37.238,0,0,0,1.785,10.546.447.447,0,0,1,.081.326.44.44,0,0,0,.081.324l.487,1.136a.575.575,0,0,0,.082.243l.007.014a.558.558,0,0,1,.074.229l46.239,119.091a64.835,64.835,0,0,0,129.637-2.111V126.362a24.3,24.3,0,0,0-24.338-24.338A26.231,26.231,0,0,0,245.814,103.809ZM70.918,387.924,12.933,286.675a19.446,19.446,0,0,1,7.211-26.539l1.687-.966,77.313,135-1.687.966a19.437,19.437,0,0,1-26.539-7.211Zm251.608,7.211-1.687-.966,77.315-135,1.685.966a19.446,19.446,0,0,1,7.211,26.539L349.064,387.924a19.439,19.439,0,0,1-26.539,7.211ZM195.763,357.781a49.138,49.138,0,0,1-25.936-25.936,48.409,48.409,0,0,1,0-37.8,49.143,49.143,0,0,1,25.936-25.934,48.408,48.408,0,0,1,37.8,0,49.148,49.148,0,0,1,25.934,25.934,48.409,48.409,0,0,1,0,37.8,49.143,49.143,0,0,1-25.934,25.936,48.409,48.409,0,0,1-37.8,0Zm-4.018-67.752a32.317,32.317,0,1,0,22.918-9.531A32.217,32.217,0,0,0,191.745,290.029Zm5.662,23.172a16.237,16.237,0,1,1,16.236,16.236A16.255,16.255,0,0,1,197.406,313.2Zm-41.318-27.516-27.418-70.573c.511.051,1.029.119,1.53.184l.1.014a24.752,24.752,0,0,0,3.238.289,32.545,32.545,0,0,0,32.448-32.451,31.488,31.488,0,0,0-3.042-13.567,33.233,33.233,0,0,0-8.15-10.769L231.048,127.5a24.456,24.456,0,0,0,7.464,16.469,23.978,23.978,0,0,0,16.71,6.733,26.75,26.75,0,0,0,8.114-1.458v121.2a65.1,65.1,0,0,0-21.478-16.306,63.248,63.248,0,0,0-27.2-6.084,64.025,64.025,0,0,0-35.189,10.485,64.8,64.8,0,0,0-23.382,27.152l0,0Zm-37.478-96.049v-.487a14.847,14.847,0,0,1-1.3-6,16.2,16.2,0,1,1,16.226,16.227A16.525,16.525,0,0,1,118.611,189.637Zm6.813-6.49a8.113,8.113,0,1,0,8.114-8.112A8.028,8.028,0,0,0,125.424,183.147ZM33.413,199.274,9.792,185.746a19.442,19.442,0,0,1-7.211-26.538l30.925-54A19.438,19.438,0,0,1,60.046,98l23.624,13.529L33.415,199.276l0,0Zm-6.8-49.827a8.735,8.735,0,1,0,4.368-1.178A8.725,8.725,0,0,0,26.614,149.448Zm15.76-27.3a8.74,8.74,0,1,0,4.368-1.176A8.72,8.72,0,0,0,42.374,122.15Zm343.048,75.18-50.254-87.748,23.625-13.53a19.438,19.438,0,0,1,26.538,7.211l30.927,54a19.47,19.47,0,0,1-7.211,26.539L385.424,197.33Zm-4-46.629a8.75,8.75,0,1,0,7.587-4.375A8.782,8.782,0,0,0,381.421,150.7Zm-15.76-27.3a8.751,8.751,0,1,0,15.158,8.751,8.755,8.755,0,0,0-7.571-13.128A8.791,8.791,0,0,0,365.661,123.405ZM251.085,134.227a9.719,9.719,0,1,1,4.851,1.3A9.724,9.724,0,0,1,251.085,134.227ZM147.191,33.059V19.446A19.446,19.446,0,0,1,166.637,0H252.2a19.447,19.447,0,0,1,19.446,19.446V33.059Z" transform="translate(109.721 43.754)" fill="#ffeb00"/>
      </g>
      <g id="Group_1172" data-name="Group 1172" transform="translate(-13947.551 -16629.316)">
        <path id="Path_23595" data-name="Path 23595" d="M74.967,181.4h-32a4.451,4.451,0,0,0-4.494,4.494V305.172a4.451,4.451,0,0,1-4.494,4.494H4.494A4.451,4.451,0,0,1,0,305.172V4.494A4.451,4.451,0,0,1,4.494,0h74.7Q116.81,0,136,16.539c12.854,11.056,19.236,28.585,19.236,52.405v42.427q0,47.057-35.236,60.765a4.528,4.528,0,0,0-2.607,6.023l56.63,125.035a4.44,4.44,0,0,1-4.045,6.292H137.8a4.542,4.542,0,0,1-4.135-2.7L79.012,184A4.427,4.427,0,0,0,74.967,181.4ZM109.035,40.72c-5.124-5.034-13.393-7.551-24.54-7.551H42.967a4.451,4.451,0,0,0-4.494,4.494V143.732a4.451,4.451,0,0,0,4.494,4.494H84.5c11.236,0,19.416-2.607,24.54-7.73s7.73-13.3,7.73-24.54V64.989C116.765,53.843,114.158,45.753,109.035,40.72Z" transform="translate(0 0)" fill="#1a1a1a"/>
        <path id="Path_23596" data-name="Path 23596" d="M23.62,305.172V281.8a4.451,4.451,0,0,1,4.494-4.494H50.137a4.451,4.451,0,0,0,4.494-4.494V36.764a4.451,4.451,0,0,0-4.494-4.494H28.114a4.451,4.451,0,0,1-4.494-4.494V4.494A4.451,4.451,0,0,1,28.114,0h91.417a4.451,4.451,0,0,1,4.494,4.494V27.865a4.451,4.451,0,0,1-4.494,4.494H97.508a4.451,4.451,0,0,0-4.494,4.494V272.992a4.451,4.451,0,0,0,4.494,4.494h22.023a4.451,4.451,0,0,1,4.494,4.494v23.371a4.451,4.451,0,0,1-4.494,4.494H28.114A4.788,4.788,0,0,1,23.62,305.172Z" transform="translate(179.335 0)" fill="#1a1a1a"/>
        <path id="Path_23597" data-name="Path 23597" d="M185.631,293.666q-17.528,15.91-57.708,15.91H45.674a4.451,4.451,0,0,1-4.494-4.494V4.494A4.451,4.451,0,0,1,45.674,0h76.945q39.776,0,60.135,16.18t20.315,52.854v170.7Q203.2,277.756,185.631,293.666ZM155.788,41.8q-8.9-8.629-23.461-8.629H84.147a4.451,4.451,0,0,0-4.494,4.494V272a4.451,4.451,0,0,0,4.494,4.494h47.731c11.236,0,19.416-2.607,24.809-7.73,5.3-5.124,8-13.3,8-24.54V64.989Q164.687,50.427,155.788,41.8Z" transform="translate(302.882 0)" fill="#1a1a1a"/>
        <path id="Path_23598" data-name="Path 23598" d="M67.07,305.172V4.494A4.451,4.451,0,0,1,71.564,0H207.656a4.451,4.451,0,0,1,4.494,4.494V27.865a4.451,4.451,0,0,1-4.494,4.494H110.037a4.451,4.451,0,0,0-4.494,4.494V129.17a4.451,4.451,0,0,0,4.494,4.494H196.6a4.451,4.451,0,0,1,4.494,4.494V161.53a4.451,4.451,0,0,1-4.494,4.494H110.037a4.451,4.451,0,0,0-4.494,4.494V272.992a4.451,4.451,0,0,0,4.494,4.494h97.619a4.451,4.451,0,0,1,4.494,4.494v23.371a4.451,4.451,0,0,1-4.494,4.494H71.564A4.788,4.788,0,0,1,67.07,305.172Z" transform="translate(479.24 0)" fill="#1a1a1a"/>
        <path id="Path_23599" data-name="Path 23599" d="M141.612,36.764v96.81a4.451,4.451,0,0,0,4.494,4.494h86.563a4.451,4.451,0,0,1,4.495,4.494v23.371a4.451,4.451,0,0,1-4.495,4.494H146.107a4.451,4.451,0,0,0-4.494,4.494V305.262a4.451,4.451,0,0,1-4.494,4.494H107.634a4.451,4.451,0,0,1-4.494-4.494V4.494A4.451,4.451,0,0,1,107.634,0H243.726a4.451,4.451,0,0,1,4.494,4.494V27.865a4.451,4.451,0,0,1-4.494,4.494H146.107A4.376,4.376,0,0,0,141.612,36.764Z" transform="translate(667.091 0)" fill="#1a1a1a"/>
        <path id="Path_23600" data-name="Path 23600" d="M279.178,306.071,263.9,234.879a4.443,4.443,0,0,0-4.4-3.506H180.481a4.516,4.516,0,0,0-4.4,3.506L160.346,306.16a4.442,4.442,0,0,1-4.4,3.506H125.829a4.46,4.46,0,0,1-4.315-5.573L194.144,3.416A4.43,4.43,0,0,1,198.458,0h43.776a4.43,4.43,0,0,1,4.315,3.416L317.83,304.093a4.463,4.463,0,0,1-4.315,5.483H283.4A4.3,4.3,0,0,1,279.178,306.071ZM215.447,49.708,185.155,192.721a4.449,4.449,0,0,0,4.4,5.393h61.034a4.493,4.493,0,0,0,4.4-5.393L224.257,49.708A4.51,4.51,0,0,0,215.447,49.708Z" transform="translate(786.274 0)" fill="#1a1a1a"/>
        <path id="Path_23601" data-name="Path 23601" d="M146.84,305.172V281.8a4.451,4.451,0,0,1,4.494-4.494h22.023a4.451,4.451,0,0,0,4.494-4.494V36.764a4.451,4.451,0,0,0-4.494-4.494H151.334a4.451,4.451,0,0,1-4.494-4.494V4.494A4.451,4.451,0,0,1,151.334,0h91.417a4.451,4.451,0,0,1,4.495,4.494V27.865a4.451,4.451,0,0,1-4.495,4.494H220.728a4.451,4.451,0,0,0-4.494,4.494V272.992a4.451,4.451,0,0,0,4.494,4.494h22.023a4.451,4.451,0,0,1,4.495,4.494v23.371a4.451,4.451,0,0,1-4.495,4.494H151.334A4.788,4.788,0,0,1,146.84,305.172Z" transform="translate(998.485 0)" fill="#1a1a1a"/>
        <path id="Path_23602" data-name="Path 23602" d="M239.367,181.4h-32a4.451,4.451,0,0,0-4.494,4.494V305.172a4.451,4.451,0,0,1-4.494,4.494H168.894a4.451,4.451,0,0,1-4.494-4.494V4.494A4.451,4.451,0,0,1,168.894,0h74.7Q281.21,0,300.4,16.539c12.854,11.056,19.236,28.585,19.236,52.405v42.427q0,47.057-35.236,60.765a4.528,4.528,0,0,0-2.607,6.023l56.63,125.035a4.44,4.44,0,0,1-4.045,6.292H302.2a4.542,4.542,0,0,1-4.135-2.7L243.322,183.822A4.155,4.155,0,0,0,239.367,181.4ZM273.525,40.72c-5.124-5.034-13.393-7.551-24.539-7.551H207.457a4.451,4.451,0,0,0-4.495,4.494V143.732a4.451,4.451,0,0,0,4.495,4.494h41.528c11.236,0,19.416-2.607,24.539-7.73s7.731-13.3,7.731-24.54V64.989C281.255,53.843,278.648,45.753,273.525,40.72Z" transform="translate(1122.031 0)" fill="#1a1a1a"/>
        <path id="Path_23603" data-name="Path 23603" d="M189.01,69.341V34.014A4.451,4.451,0,0,1,193.5,29.52h35.326a4.451,4.451,0,0,1,4.494,4.494V69.341a4.451,4.451,0,0,1-4.494,4.494H193.5A4.507,4.507,0,0,1,189.01,69.341Z" transform="translate(1311.817 235.831)" fill="#1a1a1a"/>
        <path id="Path_23604" data-name="Path 23604" d="M200.82,35.326V4.494A4.451,4.451,0,0,1,205.314,0h33.079a4.451,4.451,0,0,1,4.494,4.494V35.326a4.451,4.451,0,0,1-4.494,4.494H205.314A4.451,4.451,0,0,1,200.82,35.326Zm2.157,269.845V92.945a4.451,4.451,0,0,1,4.494-4.494h28.674a4.451,4.451,0,0,1,4.494,4.494V305.172a4.451,4.451,0,0,1-4.494,4.494H207.472A4.567,4.567,0,0,1,202.977,305.172Z" transform="translate(1384.522 0)" fill="#1a1a1a"/>
        <path id="Path_23605" data-name="Path 23605" d="M350.349,214.167q-18.337,16.854-56.81,16.809h-5.753q-38.427,0-56.81-16.809-18.337-16.854-18.337-53.933V80.592q0-37.214,18.337-53.933C243.2,15.513,262.169,9.85,287.787,9.85h5.753q38.428,0,56.81,16.809,18.337,16.854,18.337,53.933v79.641Q368.687,197.313,350.349,214.167ZM322.664,50.48q-8.359-7.551-24.809-7.551H283.293q-16.315,0-24.809,7.551c-5.573,5.034-8.45,12.135-8.45,21.214v97.259c0,9.169,2.787,16.27,8.45,21.214q8.36,7.551,24.809,7.551h14.562q16.315,0,24.809-7.551c5.573-5.034,8.45-12.135,8.45-21.214V71.693C331.113,62.525,328.237,55.513,322.664,50.48Z" transform="translate(1454.577 78.69)" fill="#1a1a1a"/>
      </g>
    </g>
  </g>
</svg>
