<svg xmlns="http://www.w3.org/2000/svg" width="1920" height="1080" viewBox="0 0 1920 1080">
  <g id="Ride_Fair_IO_Logomark_Yellow" data-name="Ride Fair IO Logomark Yellow" transform="translate(19295 17763)">
    <rect id="Rectangle_6348" data-name="Rectangle 6348" width="1920" height="1080" transform="translate(-19295 -17763)" fill="none"/>
    <g id="Ride_Fair_IO_Logomark_Yellow-2" data-name="Ride Fair IO Logomark Yellow" transform="translate(-19675.746 -18237.1)">
      <path id="Path_26743" data-name="Path 26743" d="M883.417,0A63.4,63.4,0,0,1,938.4,31.837l273.555,476.6a63.4,63.4,0,0,1,0,63.116L938.4,1048.163A63.4,63.4,0,0,1,883.417,1080H336.951a63.4,63.4,0,0,1-54.982-31.837L8.413,571.558a63.4,63.4,0,0,1,0-63.116l273.555-476.6A63.4,63.4,0,0,1,336.951,0Z" transform="translate(730.745 474.1)" fill="#ffeb00"/>
      <path id="Path_23589" data-name="Path 23589" d="M292.049,851.752a37.113,37.113,0,0,1-37.113-37.113v-25.98H544.418v25.98a37.113,37.113,0,0,1-37.113,37.113Zm-45.116-89.073a37.205,37.205,0,0,1-32.206-18.669L60.623,474.94a37.12,37.12,0,0,1,0-36.889l153.489-268V126a37.113,37.113,0,0,1,37.113-37.113H548.132A37.115,37.115,0,0,1,585.245,126V166.45q.84,1.226,1.587,2.527l154.1,269.073a37.1,37.1,0,0,1,0,36.889l-154.1,269.07a37.2,37.2,0,0,1-32.206,18.669ZM469.14,198.122l-218.309,89.8A62.108,62.108,0,0,0,209.8,307.236a61.277,61.277,0,0,0-16.875,42.3c0,6.831,1.363,12.987,3.407,20.128a.853.853,0,0,1,.154.621.84.84,0,0,0,.154.618l.929,2.168a1.1,1.1,0,0,0,.157.464l.013.027a1.066,1.066,0,0,1,.14.438L286.13,601.291a123.738,123.738,0,0,0,247.415-4.028v-356.1A46.387,46.387,0,0,0,487.1,194.715,50.064,50.064,0,0,0,469.14,198.122ZM135.347,740.359,24.683,547.125a37.114,37.114,0,0,1,13.762-50.651l3.22-1.844L189.218,752.277,186,754.121a37.1,37.1,0,0,1-50.651-13.762Zm480.2,13.762-3.22-1.844L759.881,494.631l3.217,1.844a37.114,37.114,0,0,1,13.762,50.651L666.2,740.359a37.1,37.1,0,0,1-50.651,13.762ZM373.617,682.832a93.781,93.781,0,0,1-49.5-49.5,92.389,92.389,0,0,1,0-72.138,93.79,93.79,0,0,1,49.5-49.5,92.389,92.389,0,0,1,72.138,0,93.8,93.8,0,0,1,49.5,49.5,92.389,92.389,0,0,1,0,72.138,93.79,93.79,0,0,1-49.5,49.5,92.39,92.39,0,0,1-72.138,0Zm-7.669-129.306a61.678,61.678,0,1,0,43.74-18.191A61.488,61.488,0,0,0,365.948,553.526Zm10.806,44.224a30.989,30.989,0,1,1,30.987,30.987A31.024,31.024,0,0,1,376.753,597.75ZM297.9,545.235,245.57,410.545c.975.1,1.964.227,2.919.351l.19.027a47.25,47.25,0,0,0,6.179.551,62.114,62.114,0,0,0,61.927-61.934,60.1,60.1,0,0,0-5.805-25.893,63.425,63.425,0,0,0-15.555-20.552l145.533-59.766A46.674,46.674,0,0,0,455.2,274.759a45.763,45.763,0,0,0,31.892,12.85,51.054,51.054,0,0,0,15.485-2.782V516.136a124.24,124.24,0,0,0-40.991-31.121,120.71,120.71,0,0,0-51.9-11.611,122.193,122.193,0,0,0-67.158,20.011,123.671,123.671,0,0,0-44.625,51.82l0,.007Zm-71.527-183.31V361a28.336,28.336,0,0,1-2.478-11.457,30.926,30.926,0,1,1,30.967,30.97A31.539,31.539,0,0,1,226.371,361.925Zm13-12.385a15.483,15.483,0,1,0,15.485-15.482A15.321,15.321,0,0,0,239.374,349.54ZM63.77,380.319,18.687,354.5A37.106,37.106,0,0,1,4.925,303.852L63.947,200.793A37.1,37.1,0,0,1,114.6,187.031l45.086,25.82L63.773,380.322l0,0Zm-12.977-95.1a16.671,16.671,0,1,0,8.337-2.248A16.651,16.651,0,0,0,50.793,285.223Zm30.079-52.1a16.68,16.68,0,1,0,8.337-2.245A16.642,16.642,0,0,0,80.871,233.126ZM735.585,376.608,639.674,209.14l45.089-25.823a37.1,37.1,0,0,1,50.647,13.762l59.025,103.059a37.159,37.159,0,0,1-13.762,50.651l-45.086,25.82Zm-7.636-88.993a16.7,16.7,0,1,0,14.48-8.351A16.761,16.761,0,0,0,727.949,287.615ZM697.87,235.521a16.7,16.7,0,1,0,28.929,16.7,16.709,16.709,0,0,0-14.45-25.055A16.777,16.777,0,0,0,697.87,235.521ZM479.2,256.174a18.549,18.549,0,1,1,9.259,2.488A18.558,18.558,0,0,1,479.2,256.174ZM280.916,63.093V37.113A37.113,37.113,0,0,1,318.029,0h163.3a37.115,37.115,0,0,1,37.113,37.113v25.98Z" transform="translate(940.15 557.605)" fill="#1a1a1a"/>
    </g>
  </g>
</svg>
