<svg xmlns="http://www.w3.org/2000/svg" width="1920.002" height="1080" viewBox="0 0 1920.002 1080">
  <g id="Ride_Fair_IO_Logo_Horizontal_Yellow" data-name="Ride Fair IO Logo Horizontal Yellow" transform="translate(19295 19924)">
    <rect id="Rectangle_6347" data-name="Rectangle 6347" width="1920" height="1080" transform="translate(-19295 -19924)" fill="none"/>
    <g id="Ride_Fair_IO_Logo_Horizontal_Yellow-2" data-name="Ride Fair IO Logo Horizontal Yellow" transform="translate(-1621.488 -4627.529)">
      <g id="Group_1175" data-name="Group 1175" transform="translate(-17673.512 -14964.471)">
        <path id="Path_26743" data-name="Path 26743" d="M339.653,0a24.374,24.374,0,0,1,21.139,12.241L465.968,195.484a24.374,24.374,0,0,1,0,24.267L360.792,402.994a24.374,24.374,0,0,1-21.139,12.241h-210.1a24.374,24.374,0,0,1-21.139-12.241L3.235,219.75a24.374,24.374,0,0,1,0-24.267L108.41,12.241A24.374,24.374,0,0,1,129.55,0Z" transform="translate(0 0)" fill="#ffeb00"/>
        <path id="Path_23589" data-name="Path 23589" d="M112.286,327.478a14.269,14.269,0,0,1-14.269-14.269v-9.989h111.3v9.989a14.269,14.269,0,0,1-14.269,14.269ZM94.94,293.232a14.3,14.3,0,0,1-12.383-7.178L23.309,182.6a14.272,14.272,0,0,1,0-14.183L82.321,65.38V48.444A14.269,14.269,0,0,1,96.59,34.175H210.744a14.27,14.27,0,0,1,14.269,14.269V64q.323.471.61.972L284.872,168.42a14.263,14.263,0,0,1,0,14.183L225.623,286.054a14.3,14.3,0,0,1-12.383,7.178ZM180.374,76.173,96.439,110.7a23.879,23.879,0,0,0-15.774,7.427,23.56,23.56,0,0,0-6.488,16.265,27.325,27.325,0,0,0,1.31,7.739.328.328,0,0,1,.059.239.323.323,0,0,0,.059.238l.357.833a.422.422,0,0,0,.06.178l.005.01a.41.41,0,0,1,.054.168l33.929,87.387a47.575,47.575,0,0,0,95.125-1.549V92.722a17.835,17.835,0,0,0-17.858-17.858A19.248,19.248,0,0,0,180.374,76.173ZM52.038,284.651,9.49,210.357a14.269,14.269,0,0,1,5.291-19.474l1.238-.709L72.75,289.233l-1.238.709a14.262,14.262,0,0,1-19.474-5.291Zm184.625,5.291-1.238-.709,56.732-99.059,1.237.709a14.269,14.269,0,0,1,5.291,19.474l-42.548,74.294a14.264,14.264,0,0,1-19.474,5.291Zm-93.015-27.409A36.057,36.057,0,0,1,124.616,243.5a35.521,35.521,0,0,1,0-27.736,36.06,36.06,0,0,1,19.031-19.03,35.521,35.521,0,0,1,27.736,0,36.064,36.064,0,0,1,19.03,19.03,35.521,35.521,0,0,1,0,27.736,36.06,36.06,0,0,1-19.03,19.031,35.522,35.522,0,0,1-27.736,0ZM140.7,212.818a23.714,23.714,0,1,0,16.817-6.994A23.64,23.64,0,0,0,140.7,212.818Zm4.154,17a11.914,11.914,0,1,1,11.914,11.914A11.928,11.928,0,0,1,144.853,229.821ZM114.535,209.63,94.416,157.845c.375.037.755.087,1.122.135l.073.01a18.164,18.164,0,0,0,2.376.212A23.881,23.881,0,0,0,121.8,134.39a23.105,23.105,0,0,0-2.232-9.955,24.386,24.386,0,0,0-5.981-7.9l55.954-22.979a17.945,17.945,0,0,0,5.477,12.085,17.6,17.6,0,0,0,12.262,4.94,19.629,19.629,0,0,0,5.954-1.07v88.933a47.768,47.768,0,0,0-15.76-11.965,46.41,46.41,0,0,0-19.956-4.464,46.98,46.98,0,0,0-25.821,7.694,47.549,47.549,0,0,0-17.157,19.924v0Zm-27.5-70.478v-.357a10.9,10.9,0,0,1-.953-4.4A11.89,11.89,0,1,1,97.988,146.3,12.126,12.126,0,0,1,87.035,139.152Zm5-4.762a5.953,5.953,0,1,0,5.954-5.952A5.891,5.891,0,0,0,92.034,134.39ZM24.518,146.224,7.185,136.3a14.266,14.266,0,0,1-5.291-19.473L24.586,77.2A14.263,14.263,0,0,1,44.06,71.909l17.335,9.927L24.52,146.225h0Zm-4.989-36.562a6.41,6.41,0,1,0,3.205-.864A6.4,6.4,0,0,0,19.529,109.662Zm11.564-20.03a6.413,6.413,0,1,0,3.205-.863A6.4,6.4,0,0,0,31.094,89.631ZM282.815,144.8,245.94,80.409l17.336-9.928a14.263,14.263,0,0,1,19.473,5.291L305.442,115.4a14.287,14.287,0,0,1-5.291,19.474L282.816,144.8Zm-2.936-34.216a6.421,6.421,0,1,0,5.567-3.211A6.444,6.444,0,0,0,279.879,110.581ZM268.315,90.552a6.422,6.422,0,1,0,11.123,6.421,6.424,6.424,0,0,0-5.556-9.633A6.451,6.451,0,0,0,268.315,90.552Zm-84.073,7.941a7.132,7.132,0,1,1,3.56.957A7.135,7.135,0,0,1,184.242,98.493ZM108.006,24.258V14.269A14.269,14.269,0,0,1,122.275,0H185.06a14.27,14.27,0,0,1,14.269,14.269v9.989Z" transform="translate(80.511 32.106)" fill="#1a1a1a"/>
      </g>
      <g id="Group_1176" data-name="Group 1176" transform="translate(-17091.385 -14870.46)">
        <path id="Path_23595" data-name="Path 23595" d="M55.009,133.1H31.528a3.266,3.266,0,0,0-3.3,3.3v87.527a3.266,3.266,0,0,1-3.3,3.3H3.3a3.266,3.266,0,0,1-3.3-3.3V3.3A3.266,3.266,0,0,1,3.3,0H58.109Q85.713,0,99.8,12.136c9.432,8.113,14.115,20.975,14.115,38.454V81.722q0,34.529-25.856,44.588a3.323,3.323,0,0,0-1.913,4.419L127.7,222.478a3.258,3.258,0,0,1-2.968,4.617H101.114a3.333,3.333,0,0,1-3.034-1.979l-40.1-90.1A3.249,3.249,0,0,0,55.009,133.1Zm25-103.225C76.248,26.185,70.18,24.339,62,24.339H31.528a3.266,3.266,0,0,0-3.3,3.3v77.831a3.266,3.266,0,0,0,3.3,3.3H62c8.245,0,14.247-1.913,18.007-5.672s5.672-9.762,5.672-18.007v-37.4C85.68,39.509,83.767,33.573,80.008,29.879Z" transform="translate(0 0)" fill="#ffeb00"/>
        <path id="Path_23596" data-name="Path 23596" d="M23.62,223.929V206.78a3.266,3.266,0,0,1,3.3-3.3h16.16a3.266,3.266,0,0,0,3.3-3.3V26.977a3.266,3.266,0,0,0-3.3-3.3H26.918a3.266,3.266,0,0,1-3.3-3.3V3.3a3.266,3.266,0,0,1,3.3-3.3H94a3.266,3.266,0,0,1,3.3,3.3V20.447a3.266,3.266,0,0,1-3.3,3.3H77.838a3.266,3.266,0,0,0-3.3,3.3V200.316a3.266,3.266,0,0,0,3.3,3.3H94a3.266,3.266,0,0,1,3.3,3.3v17.149a3.266,3.266,0,0,1-3.3,3.3H26.918A3.514,3.514,0,0,1,23.62,223.929Z" transform="translate(125.304 0)" fill="#ffeb00"/>
        <path id="Path_23597" data-name="Path 23597" d="M147.175,215.486q-12.862,11.675-42.345,11.675H44.478a3.266,3.266,0,0,1-3.3-3.3V3.3a3.266,3.266,0,0,1,3.3-3.3h56.46q29.187,0,44.126,11.873t14.907,38.784V175.911Q160.07,203.812,147.175,215.486Zm-21.9-184.815q-6.53-6.332-17.215-6.332H72.708a3.266,3.266,0,0,0-3.3,3.3V199.59a3.266,3.266,0,0,0,3.3,3.3h35.024c8.245,0,14.247-1.913,18.2-5.672,3.892-3.76,5.87-9.762,5.87-18.007V47.688Q131.807,37,125.277,30.671Z" transform="translate(211.286 0)" fill="#ffeb00"/>
        <path id="Path_23598" data-name="Path 23598" d="M67.07,223.929V3.3a3.266,3.266,0,0,1,3.3-3.3h99.861a3.266,3.266,0,0,1,3.3,3.3V20.447a3.266,3.266,0,0,1-3.3,3.3H98.6a3.266,3.266,0,0,0-3.3,3.3V94.782a3.266,3.266,0,0,0,3.3,3.3h63.518a3.266,3.266,0,0,1,3.3,3.3v17.149a3.266,3.266,0,0,1-3.3,3.3H98.6a3.266,3.266,0,0,0-3.3,3.3v75.193a3.266,3.266,0,0,0,3.3,3.3h71.631a3.266,3.266,0,0,1,3.3,3.3v17.149a3.266,3.266,0,0,1-3.3,3.3H70.368A3.514,3.514,0,0,1,67.07,223.929Z" transform="translate(333.801 0)" fill="#ffeb00"/>
        <path id="Path_23599" data-name="Path 23599" d="M131.37,26.977V98.014a3.266,3.266,0,0,0,3.3,3.3h63.518a3.266,3.266,0,0,1,3.3,3.3v17.149a3.266,3.266,0,0,1-3.3,3.3H134.668a3.266,3.266,0,0,0-3.3,3.3v95.64a3.266,3.266,0,0,1-3.3,3.3H106.438a3.266,3.266,0,0,1-3.3-3.3V3.3a3.266,3.266,0,0,1,3.3-3.3H206.3a3.266,3.266,0,0,1,3.3,3.3V20.447a3.266,3.266,0,0,1-3.3,3.3H134.668A3.211,3.211,0,0,0,131.37,26.977Z" transform="translate(462.04 0)" fill="#ffeb00"/>
        <path id="Path_23600" data-name="Path 23600" d="M237.168,224.588l-11.213-52.239a3.26,3.26,0,0,0-3.232-2.572H164.745a3.314,3.314,0,0,0-3.232,2.572l-11.543,52.305a3.26,3.26,0,0,1-3.232,2.572h-22.1a3.272,3.272,0,0,1-3.166-4.089L174.771,2.506A3.251,3.251,0,0,1,177.937,0h32.122a3.251,3.251,0,0,1,3.166,2.506l52.3,220.631a3.275,3.275,0,0,1-3.166,4.023h-22.1A3.158,3.158,0,0,1,237.168,224.588ZM190.4,36.475l-22.228,104.94a3.264,3.264,0,0,0,3.232,3.958h44.786a3.3,3.3,0,0,0,3.232-3.958L196.867,36.475A3.31,3.31,0,0,0,190.4,36.475Z" transform="translate(544.639 0)" fill="#ffeb00"/>
        <path id="Path_23601" data-name="Path 23601" d="M146.84,223.929V206.78a3.266,3.266,0,0,1,3.3-3.3H166.3a3.266,3.266,0,0,0,3.3-3.3V26.977a3.266,3.266,0,0,0-3.3-3.3h-16.16a3.266,3.266,0,0,1-3.3-3.3V3.3a3.266,3.266,0,0,1,3.3-3.3h67.08a3.266,3.266,0,0,1,3.3,3.3V20.447a3.266,3.266,0,0,1-3.3,3.3h-16.16a3.266,3.266,0,0,0-3.3,3.3V200.316a3.266,3.266,0,0,0,3.3,3.3h16.16a3.266,3.266,0,0,1,3.3,3.3v17.149a3.266,3.266,0,0,1-3.3,3.3h-67.08A3.514,3.514,0,0,1,146.84,223.929Z" transform="translate(693.576 0)" fill="#ffeb00"/>
        <path id="Path_23602" data-name="Path 23602" d="M219.409,133.1H195.928a3.266,3.266,0,0,0-3.3,3.3v87.527a3.266,3.266,0,0,1-3.3,3.3H167.7a3.266,3.266,0,0,1-3.3-3.3V3.3A3.266,3.266,0,0,1,167.7,0h54.811q27.6,0,41.686,12.136c9.432,8.113,14.115,20.975,14.115,38.454V81.722q0,34.529-25.856,44.588a3.323,3.323,0,0,0-1.913,4.419L292.1,222.478a3.258,3.258,0,0,1-2.968,4.617H265.514a3.333,3.333,0,0,1-3.034-1.979l-40.169-90.231A3.049,3.049,0,0,0,219.409,133.1ZM244.473,29.879c-3.76-3.694-9.828-5.541-18.007-5.541H195.994a3.266,3.266,0,0,0-3.3,3.3v77.831a3.266,3.266,0,0,0,3.3,3.3h30.473c8.245,0,14.247-1.913,18.007-5.672s5.672-9.762,5.672-18.007v-37.4C250.146,39.509,248.233,33.573,244.473,29.879Z" transform="translate(779.558 0)" fill="#ffeb00"/>
        <path id="Path_23603" data-name="Path 23603" d="M189.01,58.74V32.818a3.266,3.266,0,0,1,3.3-3.3H218.23a3.266,3.266,0,0,1,3.3,3.3V58.74a3.266,3.266,0,0,1-3.3,3.3H192.308A3.308,3.308,0,0,1,189.01,58.74Z" transform="translate(912.266 165.189)" fill="#ffeb00"/>
        <path id="Path_23604" data-name="Path 23604" d="M200.82,25.922V3.3a3.266,3.266,0,0,1,3.3-3.3h24.273a3.266,3.266,0,0,1,3.3,3.3V25.922a3.266,3.266,0,0,1-3.3,3.3H204.118A3.266,3.266,0,0,1,200.82,25.922ZM202.4,223.929V68.2a3.266,3.266,0,0,1,3.3-3.3h21.041a3.266,3.266,0,0,1,3.3,3.3V223.929a3.266,3.266,0,0,1-3.3,3.3H205.7A3.351,3.351,0,0,1,202.4,223.929Z" transform="translate(962.472 0)" fill="#ffeb00"/>
        <path id="Path_23605" data-name="Path 23605" d="M313.688,159.773Q300.233,172.141,272,172.108h-4.221q-28.2,0-41.686-12.334Q212.64,147.406,212.64,120.2V61.759q0-27.307,13.455-39.575c8.97-8.179,22.888-12.334,41.686-12.334H272q28.2,0,41.686,12.334,13.455,12.367,13.456,39.575V120.2Q327.144,147.406,313.688,159.773ZM293.373,39.663q-6.134-5.541-18.2-5.541H264.483q-11.972,0-18.2,5.541c-4.089,3.694-6.2,8.9-6.2,15.566V126.6c0,6.728,2.045,11.938,6.2,15.566q6.134,5.541,18.2,5.541h10.685q11.971,0,18.2-5.541c4.089-3.694,6.2-8.9,6.2-15.566V55.229C299.573,48.5,297.463,43.357,293.373,39.663Z" transform="translate(1010.73 55.119)" fill="#ffeb00"/>
      </g>
    </g>
  </g>
</svg>
