<?xml version="1.0" encoding="utf-8"?>
<!-- Generator: Adobe Illustrator 24.0.2, SVG Export Plug-In . SVG Version: 6.00 Build 0)  -->
<svg version="1.1" id="Layer_1" xmlns="http://www.w3.org/2000/svg" xmlns:xlink="http://www.w3.org/1999/xlink" x="0px" y="0px"
	 viewBox="0 0 1284 1284" style="enable-background:new 0 0 1284 1284;" xml:space="preserve">
<style type="text/css">
	.st0{fill:#FFEB00;}
	.st1{fill:#1A1A1A;}
</style>
<rect x="-452.7" y="-97.6" class="st0" width="1824.2" height="1504.6"/>
<g>
	<g id="Ride_Fair_IO_Logomark_Black-2" transform="translate(-15949.745 -18237.1)">
		<path id="Path_26743" class="st1" d="M16823.6,18283.6c19.3,0,37.1,10.3,46.7,27l232.1,404.3c9.5,16.5,9.5,37,0,53.5l-232.1,404.3
			c-9.6,16.7-27.4,27-46.7,27h-463.6c-19.3,0-37.1-10.3-46.7-27l-232.1-404.3c-9.5-16.5-9.5-37,0-53.5l232.1-404.3
			c9.6-16.7,27.4-27,46.7-27H16823.6z"/>
		<path id="Path_23589" class="st0" d="M16499.5,19077.1c-17.4,0-31.5-14.1-31.5-31.5v-22.1h245.6v22.1c0,17.4-14.1,31.5-31.5,31.5
			H16499.5z M16461.2,19001.5c-11.3,0-21.7-6-27.3-15.9l-130.7-228.3c-5.5-9.7-5.5-21.6,0-31.3l130.2-227.4v-37.4
			c0-17.4,14.1-31.5,31.5-31.5l0,0h251.9c17.4,0,31.5,14.1,31.5,31.5v34.3c0.5,0.7,0.9,1.4,1.4,2.1l130.7,228.3
			c5.5,9.7,5.5,21.6,0,31.3l-130.7,228.3c-5.6,9.8-16,15.9-27.3,15.9L16461.2,19001.5L16461.2,19001.5z M16649.7,18522.5
			l-185.2,76.2c-13.2,0.8-25.7,6.7-34.8,16.4c-9.2,9.7-14.3,22.6-14.3,35.9c0,5.8,1.2,11,2.9,17.1c0.1,0.2,0.2,0.3,0.2,0.5
			c0,0.2,0,0.3,0.2,0.5l0.8,1.9c0,0.2,0.1,0.3,0.2,0.4l0,0c0.1,0.1,0.1,0.3,0.1,0.3l74.9,192.8c1.8,57.9,50.3,103.4,108.3,101.6
			c56.7-1.8,101.7-48.3,101.7-105V18559c0-21.7-17.6-39.4-39.3-39.4h-0.1C16659.7,18519.7,16654.6,18520.7,16649.7,18522.5z
			 M16366.5,18982.6l-93.9-163.9c-8.7-15.1-3.4-34.4,11.7-43l0,0l2.7-1.5l125.2,218.5l-2.7,1.5
			C16394.5,19002.9,16375.2,18997.7,16366.5,18982.6L16366.5,18982.6L16366.5,18982.6z M16773.9,18994.2l-2.7-1.5l125.2-218.5
			l2.7,1.5c15.1,8.7,20.3,27.9,11.7,43l0,0l-93.9,163.9C16808.3,18997.6,16789,19002.9,16773.9,18994.2L16773.9,18994.2
			L16773.9,18994.2z M16568.7,18933.8c-18.9-8.1-33.9-23.1-42-42c-8.3-19.6-8.3-41.7,0-61.2c8.1-18.9,23.1-33.9,42-42
			c19.6-8.3,41.7-8.3,61.2,0c18.9,8.1,33.9,23.1,42,42c8.3,19.6,8.3,41.7,0,61.2c-8.1,18.9-23.1,33.9-42,42
			C16610.4,18942.1,16588.2,18942.1,16568.7,18933.8z M16562.2,18824.1c-20.4,20.5-20.3,53.6,0.3,74s53.6,20.3,74-0.3
			s20.3-53.6-0.3-74c-9.8-9.8-23.1-15.2-36.9-15.2C16585.3,18808.6,16572,18814.2,16562.2,18824.1z M16571.3,18861.6
			c0-14.5,11.8-26.3,26.3-26.3c14.5,0,26.3,11.8,26.3,26.3s-11.8,26.3-26.3,26.3l0,0
			C16583.1,18887.9,16571.3,18876.1,16571.3,18861.6L16571.3,18861.6z M16504.5,18817l-44.4-114.3c0.8,0.1,1.7,0.2,2.5,0.3h0.2
			c1.7,0.3,3.5,0.4,5.3,0.5c29-0.1,52.4-23.6,52.5-52.5c0-7.6-1.7-15.1-4.9-22c-3.1-6.6-7.6-12.6-13.2-17.5l123.4-50.7
			c0.5,10.1,4.8,19.7,12,26.6c7.3,7,17,10.9,27.1,10.9c4.5-0.1,8.9-0.9,13.2-2.4v196.2c-9.6-11.1-21.5-20.1-34.8-26.4
			c-13.7-6.5-28.8-9.8-44-9.8c-20.3,0-40,5.9-57,17C16525.8,18783.9,16512.7,18799.1,16504.5,18817L16504.5,18817L16504.5,18817z
			 M16443.7,18661.5v-0.8c-1.4-3.1-2.1-6.4-2.1-9.8c0-14.5,11.8-26.2,26.3-26.2s26.2,11.8,26.2,26.3c0,14.4-11.7,26.2-26.2,26.2
			C16457.5,18677.2,16448.1,18671.1,16443.7,18661.5L16443.7,18661.5z M16454.8,18651c0,7.3,5.9,13.2,13.2,13.2
			c7.3,0,13.2-5.9,13.2-13.2c0-7.3-5.9-13.2-13.2-13.2c-7.2-0.1-13.1,5.7-13.2,12.9C16454.8,18650.8,16454.8,18650.9,16454.8,18651
			L16454.8,18651z M16305.8,18677.1l-38.3-21.9c-15.1-8.7-20.3-27.9-11.7-42.9l0,0l50.1-87.5c8.7-15.1,27.8-20.4,42.9-11.7l0,0
			l38.3,21.9L16305.8,18677.1L16305.8,18677.1L16305.8,18677.1z M16294.8,18596.4c-6.8,3.9-9.1,12.6-5.2,19.3s12.6,9.1,19.3,5.2
			s9.1-12.6,5.2-19.3c-2.5-4.4-7.2-7-12.2-7C16299.4,18594.6,16297,18595.2,16294.8,18596.4L16294.8,18596.4z M16320.3,18552.2
			c-6.8,3.9-9.1,12.6-5.2,19.3c3.9,6.8,12.6,9.1,19.3,5.2s9.1-12.6,5.2-19.3c-2.5-4.4-7.2-7-12.3-7
			C16324.9,18550.4,16322.5,18551,16320.3,18552.2L16320.3,18552.2z M16875.8,18674l-81.4-142.1l38.3-21.9
			c15.1-8.7,34.3-3.4,42.9,11.6l0,0l50.1,87.5c8.7,15.1,3.4,34.3-11.7,43L16875.8,18674L16875.8,18674z M16869.3,18598.5
			c-3.9,6.8-1.6,15.4,5.2,19.3s15.4,1.6,19.3-5.2c3.9-6.8,1.6-15.4-5.2-19.3c-2.1-1.3-4.6-1.9-7-1.9
			C16876.5,18591.4,16871.8,18594.1,16869.3,18598.5L16869.3,18598.5z M16843.8,18554.3c-3.9,6.8-1.6,15.4,5.2,19.3
			s15.4,1.6,19.3-5.2l0,0c3.9-6.8,1.6-15.4-5.2-19.3c-2.1-1.3-4.6-1.9-7-1.9C16851,18547.2,16846.3,18549.9,16843.8,18554.3z
			 M16658.3,18571.8c-7.6-4.3-10.1-14-5.8-21.5c4.3-7.6,14-10.1,21.5-5.8c7.6,4.3,10.1,14,5.8,21.5c-2.8,4.8-8,7.9-13.7,7.9
			C16663.4,18573.9,16660.7,18573.2,16658.3,18571.8z M16490.1,18408v-22.1c0-17.4,14.1-31.5,31.5-31.5l0,0h138.5
			c17.4,0,31.5,14.1,31.5,31.5v22.1H16490.1z"/>
	</g>
	<g>
		<path d="M237.1,1225.7c-8.6,7.9-22.9,11.8-42.7,11.8h-64.1v-229.1h60.2c19.6,0,34.5,4,44.5,11.9c10,8,15.1,21,15.1,39.1v126.3
			C250,1204.5,245.7,1217.8,237.1,1225.7z M215,1039.3c-4.4-4.3-10.1-6.4-17.3-6.4h-38.9v180h38.6c8.3,0,14.4-1.9,18.3-5.7
			c3.9-3.8,5.9-9.9,5.9-18.2v-132.5C221.5,1049.3,219.3,1043.6,215,1039.3z"/>
		<path d="M359.9,1142.6h-29.1v94.9h-28.5v-229.1h58.6c18.5,0,32.6,4.1,42,12.3c9.5,8.2,14.2,21.1,14.2,38.8v31.4
			c0,24.7-9.8,40-29.4,46.1l45.5,100.5h-31.1L359.9,1142.6z M383,1038.5c-3.8-3.7-9.9-5.6-18.2-5.6h-34v85.1h34
			c8.3,0,14.3-1.9,18.2-5.7c3.8-3.8,5.7-9.9,5.7-18.2v-37.6C388.7,1048.2,386.8,1042.2,383,1038.5z"/>
		<path d="M459.4,1237.5v-23.9h22.9v-181.3h-22.9v-23.9h74.3v23.9h-22.9v181.3h22.9v23.9H459.4z"/>
		<path d="M643.6,1237.5h-38.9l-44.8-229.1h28.8l36,200.3l38.9-200.3h28.1L643.6,1237.5z"/>
		<path d="M731,1237.5v-229.1h107.3v23.9h-78.9v74.9h70.7v23.9h-70.7v82.5h78.9v23.9H731z"/>
		<path d="M943.4,1142.6h-29.1v94.9h-28.5v-229.1h58.6c18.5,0,32.6,4.1,42,12.3c9.5,8.2,14.2,21.1,14.2,38.8v31.4
			c0,24.7-9.8,40-29.5,46.1l45.5,100.5h-31.1L943.4,1142.6z M966.4,1038.5c-3.8-3.7-9.9-5.6-18.2-5.6h-34v85.1h34
			c8.3,0,14.3-1.9,18.2-5.7c3.8-3.8,5.7-9.9,5.7-18.2v-37.6C972.2,1048.2,970.2,1042.2,966.4,1038.5z"/>
		<path d="M1138.5,1223.6c-10.1,9.3-24.7,13.9-43.7,13.9h-43.2v-24.9h46.5c8.1,0,14.6-2.4,19.6-7.2c5-4.8,7.5-10.6,7.5-17.3v-34
			c0-6.5-1.7-11.8-5.1-15.9c-3.4-4-8.5-6.1-15.2-6.1h-6.5c-16.1,0-28.9-4.7-38.3-14.2c-9.4-9.5-14.1-23.3-14.1-41.4V1064
			c0-18.5,5.1-32.4,15.2-41.7c10.1-9.3,24.7-13.9,43.7-13.9h43.5v24.9h-46.8c-8.1,0-14.6,2.4-19.6,7.2c-5,4.8-7.5,10.6-7.5,17.3
			v24.9c0,6.8,2.2,12.4,6.5,16.9c4.4,4.5,10,6.7,17,6.7h6.5c15.5,0,27.5,4.5,36.2,13.4c8.6,8.9,12.9,22.5,12.9,40.6v21.6
			C1153.8,1200.4,1148.7,1214.3,1138.5,1223.6z"/>
	</g>
</g>
</svg>
